<?xml version="1.0" encoding="UTF-8" standalone="no"?>
<svg
   version="1.1"
   viewBox="0 0 3221.4245 577.77228"
   width="3221.4246pt"
   height="577.77228pt"
   id="svg43"
   xmlns="http://www.w3.org/2000/svg"
   xmlns:svg="http://www.w3.org/2000/svg">
  <defs
     id="defs43" />
  <g
     id="g2"
     transform="matrix(1.1547913,0,0,1.1547913,-68.736528,-206.20958)">
    <path
       id="path2"
       d="m 70.594168,178.60387 c -5.51,-0.46 -11.13002,3.64091 -11.02002,9.44091 -0.78,19.99 7.57084,40.94954 9.61084,61.01954 1.38,15.88999 1.99924,32.11929 0.71924,48.02929 -0.66,17.62 -2.9895,34.13998 -1.4795,51.97998 0.64,8.32 1.56077,16.96979 3.78077,25.02979 4.35,16.38 12.44931,31.81 23.04931,45 11.320002,13.88 25.670312,24.21142 41.320312,32.71142 21.25,11.6 43.85975,17.20938 67.48975,21.60938 12.45,1.91 24.98949,2.7697 37.47949,4.1997 -8.11,0.21 -16.15902,0.90971 -24.24902,1.19971 -20.01,1.32 -39.66996,6.42026 -57.45996,15.76026 -9.27,4.88 -18.35055,10.81093 -25.81055,18.21093 -6.45,6.66 -12.31064,14.25866 -16.41064,22.61866 -7.12,15.03 -9.96887,32.25115 -12.58887,48.68115 -0.95,9.61 -2.95119,18.92021 -5.471192,28.22021 -1.96,6.48 -5.51904,11.81907 -8.26904,17.78907 -1.51,3.29 -2.33989,6.69027 -1.37989,10.28027 1.51,3.4 4.89946,5.65969 8.68946,5.17969 11.600002,-1.46 21.980252,-8.22016 33.760252,-10.16016 7.59,-1.13 15.25945,-2.16891 22.93945,-2.37891 6.35,-0.25 12.671,0.14946 19.021,-0.31054 8.36,-0.6 16.34988,-0.32008 24.62988,-2.08008 13.78,-3.12 26.69953,-9.39992 37.76953,-18.16992 9.91,-7.87 17.80067,-17.41051 25.93067,-27.02051 6.85,-8.99 13.5098,-17.32024 18.7998,-27.24024 14.05,-23.78 22.0594,-50.6296 24.3794,-78.0996 0.08,-5.69 0.6805,-11.35028 0.7705,-17.03028 -0.53,-21.21 -3.06015,-42.18945 -8.66015,-62.68945 -4.18,-17.31 -10.59993,-33.73959 -18.16993,-49.82959 -13.25,-27.6 -30.39007,-53.28984 -50.83007,-76.08984 -8.21,-9.71001 -16.85057,-19.18995 -26.33057,-27.68994 -14.5,-13.69 -30.43963,-26.40114 -47.86963,-36.16114 -19.61,-11.78 -40.46972,-21.189 -62.469722,-27.479 -7.01,-2.36 -14.3309,-3.78076 -21.6709,-4.53076 z m 58.590822,76.74023 c 5.7,3.9 10.63015,9.45043 15.41015,14.44043 5.11,5.55 10.53905,10.78021 15.76905,16.22021 9.64,10.74 19.51009,21.24879 28.85009,32.25879 -0.53,-4.37 -1.5191,-8.63922 -2.3291,-12.94922 -0.75,-4.06 -0.88056,-8.18023 -1.58056,-12.24023 -1.16,-6.55 -2.35004,-13.26041 -2.54004,-19.92041 2.93,12.27 4.54054,24.70102 7.81054,36.79102 1.83,6.56 2.48959,12.6888 6.32959,18.5288 4.81,7.47 9.87963,14.78991 14.86963,22.14991 4.63,6.14 8.99035,12.39037 13.11035,18.88037 1.06,1.33 1.88063,3.45049 3.89063,3.25049 0.32,-13.66 -0.13,-27.38002 0,-41.02002 1.53,9.42 1.4698,19.04949 3.0498,28.47949 0.53,7.46 0.60952,14.82098 1.99952,22.25098 0.86,4.11 2.98007,7.4588 5.08007,11.0288 4.9,8.09 10.21965,16.01061 14.63965,24.37061 1.52,2.79 2.7511,5.58029 5.1211,7.80029 0.48,-5.2 -0.25989,-10.37008 0.12011,-15.58008 0.48,-6.58 -0.18033,-12.87078 0.90967,-19.30078 1.69,1.54 0.99033,5.16008 1.34033,7.33008 1.14,11.73 -0.68074,23.79053 1.98926,35.04053 2.17,9.63 4.56992,19.18953 6.91992,28.76953 -4,-6.53 -8.67943,-12.94934 -14.16943,-18.31934 -6,-5.28 -13.06039,-10.14959 -20.15039,-13.82959 -14.63,-7.13 -29.96078,-12.88048 -45.55078,-17.50048 -12.41,-4.06 -24.95871,-7.8801 -37.67871,-10.8501 8.11,0.46 16.27916,3.34006 24.13916,5.31006 11.55,2.85 22.42084,6.8298 33.61084,10.5498 6.61,1.99 12.79925,5.16973 19.23925,7.71973 10.13,4.2 18.92047,10.31068 28.23047,15.95068 -0.51,-1.82 -1.05099,-3.61986 -1.77099,-5.35986 -4.39,-10.29 -9.20975,-20.23987 -15.73975,-29.35987 -4.67,-6.23 -11.06986,-10.1013 -17.35986,-14.5913 -8.5,-5.48 -17.41977,-10.39981 -26.75977,-14.29981 -10.51,-4.21 -20.87045,-8.72949 -31.46045,-12.72949 -6.34,-3.08 -13.129,-4.80076 -19.229,-8.28076 4.56,0.75 8.19021,3.02006 12.47021,4.56006 8.2,2.96 16.43951,5.89017 24.49951,9.18017 15.87,6.12 32.71926,12.74055 46.98926,22.06055 1.31,0.79 2.67004,1.48943 4.04004,2.16943 -8.54,-16.76 -17.29906,-35.00949 -32.78906,-46.47949 -14.48,-10.85 -29.81082,-20.68938 -45.84082,-29.10937 -1.98,-1.04 -3.86035,-2.2211 -5.61035,-3.6211 5.74,1.84 11.07115,5.07029 16.43115,7.80029 12.11,6.48 23.20932,14.57971 35.04932,21.44971 -1.47,-4.17 -4.07041,-7.42008 -6.42041,-11.08008 -3.41,-5.17 -6.76866,-10.5599 -10.61866,-15.3999 -3.53,-4.47 -7.24132,-8.76963 -10.61132,-13.36963 -6.81,-9.13 -14.45889,-17.49015 -22.10889,-25.91015 -6.87,-8.03 -14.71033,-15.23975 -21.59033,-23.23975 z m 131.12988,254.97949 c -3.29,4.14 -7.50039,6.92987 -10.40039,11.35987 -3.49,5.03 -4.79998,10.39054 -6.97998,16.06054 -2.06,5.37 -3.31037,10.99059 -5.38037,16.35059 0.47,-5.61 2.31004,-11.01031 3.29004,-16.57031 0.95,-5.47 3.8705,-10.13014 4.5205,-15.64014 -3.41,1.94 -6.40052,4.39019 -9.54052,6.70019 -6.15,4.44 -12.21862,9.06944 -17.82862,14.16944 -4.85,4.19 -7.1913,11.22015 -10.0913,16.91015 -3.04,6.06 -4.91897,13.31963 -9.18897,18.61963 1.24,-3.99 3.16982,-7.69875 4.31982,-11.71875 1.47,-5.06 3.98038,-9.68123 5.38038,-14.76123 -7.13,3.89 -13.2712,9.78067 -19.7212,14.68067 -3.8,2.83 -6.93892,6.24004 -11.14892,8.54004 8.04,-8.5 16.96992,-16.21077 25.66992,-24.03077 1.73,-1.75 4.83973,-3.3088 5.46973,-5.7788 -5.77,1.12 -11.53037,2.24898 -17.38037,2.95898 -6.74,0.83 -13.31932,2.62021 -20.04932,3.47021 12.5,-4.96 26.98928,-5.08054 40.00928,-8.56054 3.18,-1.01 6.0099,-3.34961 8.6499,-5.34961 6.4,-4.97 12.94058,-9.73971 19.35058,-14.69971 3.38,-2.62 6.88047,-4.58033 9.48047,-8.09033 -1.47,-0.37 -2.92115,-0.74916 -4.43115,-0.88916 -11.47,-0.84 -22.42006,0.15906 -33.81006,1.28906 -6.59,0.61 -12.52015,2.71094 -19.16015,2.46094 13.84,-3.7 28.68068,-5.23006 42.95068,-6.06006 8.87,-0.32 17.29002,1.0091 26.02002,-1.4209 z"
       style="fill:#ede3bd;fill-opacity:1" />
    <path
       id="path3"
       d="m 594.2553,204.25475 c -3.06,-0.25 -6.35035,0.74002 -9.36035,1.27002 -20.08,3.36 -39.75026,9.81964 -58.51026,17.63964 -21.06,8.87 -41.26968,19.92012 -59.92968,33.12012 -13.72,9.44 -26.20004,20.28969 -38.54004,31.42969 -18.63,17.77 -35.60076,37.73992 -49.53076,59.41992 -7.22,10.42 -13.3494,21.64064 -19.1294,32.91064 -7.21,13.56 -12.94051,27.98871 -18.77051,42.17871 -6.98,18.74 -13.81935,37.24034 -18.08935,56.84034 -1.75,7.51 -2.97051,15.28976 -3.02051,23.00976 0.12,2.28 0.0402,5.47002 1.68018,7.27002 1.46,1.8 4.29961,2.02084 6.09961,0.61084 2.8,-2.16 5.03003,-4.99047 7.79003,-7.23047 7.69,-6.25 16.40991,-11.19013 25.89991,-14.14013 7.62,-2.51 15.49068,-3.77032 23.45068,-4.57032 20.08,-1.3 39.26072,-1.01916 58.99072,-3.88916 23.17,-3.88 45.20946,-11.80035 64.18946,-25.86035 11.08,-8.61 20.96937,-18.44039 29.10937,-29.90039 10.29,-13.64 18.17086,-28.7599 24.38086,-44.6499 6.45,-16.5 9.92932,-33.3194 13.29932,-50.6294 0.91,-5.75 1.63015,-11.51095 2.66015,-17.23095 2.38,-13.67 4.28026,-27.21998 7.51026,-40.72998 3.81,-18.18 9.36943,-35.74899 15.66943,-53.20899 0.91,-2.83 2.03023,-5.79097 0.99023,-8.75097 -0.76,-3.02 -4.02935,-4.44869 -6.83935,-4.90869 z m -73.08984,71.79931 c -4.64,4.97 -9.97989,9.28951 -14.87989,13.99951 -8.31,8.05 -16.83109,15.8299 -24.62109,24.3999 -4.62,5.24 -9.91897,10.18106 -13.68897,16.08106 5.04,-1.64 9.84901,-4.01006 14.72901,-6.06006 7.41,-3.77 15.25002,-6.12045 23.02002,-8.96045 2.79,-1.01 5.61004,-1.72994 8.54004,-2.18994 -3.89,1.78 -7.92969,3.25023 -11.92969,4.74023 -10.8,3.62 -21.35936,8.58032 -31.58936,13.57032 -3.24,1.62 -6.03033,3.80884 -8.84033,6.06884 -4.24,3.58 -8.33053,6.86045 -11.79053,11.21045 -5.79,7.18 -11.73035,14.26036 -17.61035,21.36036 -3.53,5.09 -7.82922,9.34027 -10.69922,14.78027 10.71,-5.24 21.8502,-9.2007 32.9502,-13.4707 6.69,-2.22 13.57934,-5.35979 20.56934,-6.27979 -11.65,4.51 -23.24043,9.06008 -34.69043,14.08008 -7.46,3.64 -15.45983,7.03047 -22.31983,11.73047 -6.75,4.47 -9.99933,12.11988 -15.31933,18.62988 -5.34,7.63 -11.58088,14.96924 -15.90088,23.21924 4.53,-1.23 8.24103,-3.82908 12.56103,-5.55908 16.63,-6.99 34.25955,-11.89125 51.78955,-16.03125 8.5,-2.11 17.1194,-5.53967 25.8794,-6.15967 -5.58,2.23 -11.49924,3.59972 -17.21924,5.46973 -13.09,3.66999 -26.1407,7.58005 -38.9707,12.06005 -14.41,4.26 -27.95965,10.66075 -40.88965,18.26075 -6.82,4.08 -12.66004,9.20959 -19.04004,13.82959 1.21,-2.02 2.56041,-3.93041 4.17041,-5.67041 5.07,-5.61 9.90064,-11.43913 14.91064,-17.09913 5.69,-6.16 7.91866,-14.92951 9.11866,-22.99951 2.85,-14.03 5.76103,-28.09039 9.56103,-41.90039 -0.13,2 -0.26109,3.9802 -0.62109,5.9502 -2.66,13.67 -5.13891,27.40949 -6.87891,41.22949 3.42,-3.1 5.79957,-6.83053 8.80957,-10.29053 3.68,-4.33 7.14004,-8.82945 10.79004,-13.18945 7.7,-9.52 15.68041,-17.73008 19.17041,-29.83008 3.56,-10.62 5.18988,-21.85062 8.87988,-32.39062 -0.14,11 -4.3108,21.7106 -4.8208,32.6206 4.24,-2.46 6.21117,-6.26974 9.45117,-9.73974 8.18,-8.83 16.03893,-17.95032 23.89893,-27.07032 6.11,-6.74 8.51967,-17.12935 11.40967,-25.58935 2.3,-6.25 2.78051,-12.16116 6.02051,-17.93115 -1.87,11.19 -5.19952,22.30099 -7.99952,33.27099 13.4,-11.4 25.97932,-23.6701 39.54932,-34.8501 1.45,-1.19 2.97102,-2.28029 4.54102,-3.30029 z"
       style="fill:#ede3bd;fill-opacity:1" />
    <path
       d="m 257.22485,252.08408 c 4.59,1.98 8.18,6.92 11.47,10.57 14.69,16.9 24.88,36.51 32.63,57.41 6.96,19.79 10.61,40.26 13.09,61.02 0.65,5.71 1.61,11.23 1.57,16.99 -0.01,9.28 0.26,18.77 -1,27.98 -0.43,-0.38 -0.86,-0.76 -1.29,-1.14 -0.43,-5.61 -0.64,-11.24 -1.2,-16.84 -3.22,-24.71 -7.43,-49.09 -15.4,-72.78 -6.57,-20.62 -15.62,-40.08 -28.48,-57.56 -4.51,-6.2 -10.07,-11.16 -15.15,-16.82 -1.81,-1.98 -3.12,-4.84 -1.66,-7.4 1.18,-1.99 3.4,-2.28 5.42,-1.43 z"
       fill="#e7dfbd"
       id="path4" />
    <path
       d="m 395.28485,253.29408 c 1.64,0.09 3.4,-0.26 4.39,1.36 1.68,2.09 0.45,4.21 -0.48,6.3 -2.78,5.26 -8.07,9.54 -12.09,13.91 -11.44,10.79 -20.56,24.32 -27.82,38.21 -7.53,15.35 -13.69,31.44 -18.02,47.99 -4.08,14.14 -6.79,28.68 -9.83,43.07 -0.79,2.89 -1.11,3.34 -4.06,3.97 -1.27,-3.98 -0.01,-7.35 0.51,-11.35 3.85,-25.46 8.79,-51.49 18.69,-75.4 9.11,-23.16 22,-44.71 39.28,-62.71 2.6,-2.45 5.61,-5.41 9.43,-5.35 z"
       fill="#e7dfbd"
       id="path5" />
    <path
       d="m 579.29485,443.60408 c 6.59,0.15 12.82,3.52 16.26,9.19 6.31,10.4 1.73,26 -9.13,31.42 -2.86,1.54 -6.39,1.47 -9.19,2.94 -1.58,5.41 -1.83,11.16 -3.36,16.61 -8.36,32.47 -23.86,63.23 -43.83,90.09 -7.29,9.57 -15.29,18.66 -24.07,26.88 -22.22,21.96 -49.77,39.07 -79.64,48.39 -31.54,9.63 -64.59,13.23 -97.03,5.8 -4.81,-1.31 -9.73,-2.58 -14.32,-4.55 -3.06,-1.41 -5.25,-3.17 -6.73,-6.25 4.47,0.5 8.36,2.3 12.67,3.42 10.11,2.92 20.91,3.94 31.37,4.85 15.6,0.28 30.48,0.45 45.87,-2.66 9.76,-1.98 19.7,-4.21 29,-7.78 7.93,-2.81 15.73,-5.7 23.01,-9.98 22.8,-11.76 43.26,-28.63 60.28,-47.75 7.19,-7.65 13.48,-15.92 19.52,-24.5 15.09,-21.8 27.38,-45.34 35.18,-70.74 2.34,-7.56 4.81,-15.02 6.07,-22.87 -3.45,-1.99 -6.84,-3.39 -9.57,-6.42 -4.41,-4.37 -5.64,-10.64 -5.15,-16.64 1.19,-11.09 11.65,-20.09 22.79,-19.45 z"
       fill="#e7dfbd"
       id="path18" />
    <path
       d="m 507.26485,485.66408 c 2.85,0.35 6.04,1.38 7.18,4.3 2.38,5.08 2.1,11.62 1.51,17.07 -1.22,10.27 -3.01,20.63 -6.17,30.49 -7.76,26.76 -21.53,52.93 -41.17,72.88 -8.6,8.3 -17.53,16.02 -27.87,22.11 -7.66,4.69 -15.73,8.66 -24.12,11.88 -7.22,2.46 -14.84,4.46 -22.34,5.81 -9.7,1.81 -20.13,1.6 -29.97,1.28 -18.59,-0.83 -34.97,-5.98 -53.04,-5.01 -16.3,1.05 -31.33,7.58 -44.28,17.31 -3.06,2.4 -6.08,5.98 -9.73,7.34 -2.64,0.94 -5.53,0.51 -6.89,-2.17 -2.1,-4.83 -1.28,-10.51 -0.59,-15.55 2.04,-16.92 5.39,-34.82 14.15,-49.69 10.7,-19.28 29.69,-34.68 51.23,-39.91 9.42,-2.15 19.51,-2.39 29.12,-1.73 20.83,1.98 40.12,5.64 61.27,4.4 5.3,-0.34 11.38,-2.32 16.54,-1.09 3.04,0.79 6.32,2.16 7.64,5.25 1.17,5.13 -1.33,9.53 -4.73,13.15 -3.61,3.63 -8.52,6.84 -13.31,8.64 -7.08,2.42 -14.41,4.2 -21.84,5.11 -9.75,0.91 -19.31,0.16 -29.01,-0.6 1.39,0.97 2.77,1.77 4.42,2.22 14.28,4.46 29.55,4.4 44.03,0.92 7.85,-1.41 14.58,-4.93 21.71,-8.28 17.31,-9.17 30.94,-23.34 40.95,-40.06 6.94,-10.81 12.22,-22.54 16.31,-34.7 3,-7.93 5.66,-16.74 10.05,-23.94 2.02,-3.25 4.97,-6.75 8.95,-7.43 z"
       fill="#e7dfbd"
       id="path19"
       style="display:inline" />
    <path
       d="m 389.29485,497.13408 c 11.04,-1.16 22.96,0.64 33.32,4.6 5.95,2.41 12.29,5.6 15.9,11.14 2.64,3.85 2.71,9.02 2.13,13.48 -1.43,7.13 -6.91,12.32 -12.14,16.93 -10.26,8.02 -22.6,11.59 -35.22,13.9 -12.78,1.9 -26.29,1.85 -38.86,-1.33 -7.54,-2.22 -14.55,-5.04 -19.17,-11.75 -4.63,-5.6 -4.41,-13.3 -1.57,-19.64 2.39,-4.6 6.13,-8.58 10.17,-11.8 12.82,-10 29.36,-14.73 45.44,-15.53 z"
       fill="#e7dfbd"
       id="path20" />
    <path
       d="m 485.28485,503.11408 c 2.22,-0.34 3.42,2.22 3.61,4.03 -0.65,6.33 -3.34,12.21 -5.69,17.83 -4.22,11.63 -11.2,22.5 -19.02,32.04 -5.98,8.27 -13.11,15.49 -20.97,21.97 -4.22,3.71 -9.25,5.98 -13.86,9.23 4.58,-6.39 9.77,-12.32 14.51,-18.6 7.21,-8.87 13.39,-18.3 18.39,-28.6 5.28,-10.4 8.65,-23.13 15.27,-32.73 1.86,-2.48 4.3,-5.52 7.76,-5.17 z"
       fill="#e7dfbd"
       id="path21"
       style="display:inline" />
    <path
       d="m 462.42485,530.08408 c -0.18,4.06 -2.69,8.06 -4.54,11.6 -3.42,6.66 -7.84,12.63 -12.69,18.31 -1.97,2.22 -3.98,4.54 -6.89,5.5 -2.17,0.09 -4.59,-2.17 -4.22,-4.44 1.44,-3.21 4.45,-5.79 6.56,-8.6 4.1,-5.15 7.43,-10.8 10.33,-16.7 1.72,-3.24 3.29,-6.72 6.97,-8.11 2.08,-0.74 3.83,0.43 4.48,2.44 z"
       fill="#e7dfbd"
       id="path40"
       style="display:inline" />
  </g>
  <g
     id="g1"
     transform="matrix(2.0380564,0,0,2.1755046,-1056.7708,-702.22294)">
    <path
       d="m 968.69424,327.87894 c -0.7482,4.76737 -2.18473,9.00631 -2.36429,13.88855 -0.4988,11.61401 0.8679,22.74553 2.7334,34.09531 2.5239,16.59964 5.78603,33.50944 6.93326,50.28139 0.44891,6.18035 0.18954,12.34921 0.38906,18.52956 0.77812,-0.99943 1.42655,-2.06778 1.9453,-3.22803 7.35225,-20.21824 15.85173,-40.02293 25.94733,-58.6329 7.053,-13.50946 15.4827,-26.49049 25.6681,-37.08209 7.033,-7.09936 15.0237,-13.11888 24.4909,-14.54335 5.7561,-1.10281 12.6195,0.0574 17.0189,4.77886 4.6388,5.02009 5.2773,13.10739 3.0227,19.7013 -3.3519,9.46581 -12.5297,15.9793 -21.3285,15.76103 3.4317,-2.6881 7.2226,-3.67604 9.507,-7.53589 3.0427,-5.18092 3.2422,-13.37161 -0.9477,-17.86327 -4.0302,-4.45721 -9.946,-5.12349 -15.2132,-3.91729 -8.7988,1.9529 -16.5501,8.89143 -22.6553,16.12865 -11.1431,13.13036 -18.7548,28.2481 -26.6358,44.02062 -11.48228,24.50313 -21.17887,49.83337 -29.92774,75.78394 -0.95769,2.03331 -0.96767,4.31935 -3.54145,3.74497 -0.61851,-3.251 0.23942,-6.88109 0.2893,-10.20102 0.5387,-14.75013 -1.29687,-30.00571 -3.80082,-44.44567 -1.72584,-12.03904 -3.79085,-23.98618 -5.72618,-35.97928 -1.63605,-9.9368 -2.01513,-19.96551 -3.0626,-29.97124 -6.37461,14.17574 -11.73168,28.98331 -18.39559,42.98674 -8.99827,20.18377 -20.14137,41.05681 -34.72616,56.51917 -9.68661,10.18953 -21.08908,17.63352 -34.40692,18.66741 -7.85105,0.88455 -15.96147,-1.70017 -21.59786,-8.23663 -5.41692,-6.23779 -7.65152,-16.07121 -4.97798,-24.42272 1.9054,-5.64043 7.45201,-8.89143 12.52975,-7.08787 4.35947,1.12579 7.32232,6.20332 5.93567,11.25788 -0.81803,4.26191 -3.67114,5.41068 -6.62401,7.37506 -0.25937,5.53704 0.7482,10.91326 4.81837,14.37104 4.90815,4.19299 12.17061,3.45778 17.84691,2.2286 13.22806,-3.28546 24.05193,-13.83112 32.82076,-25.20388 10.98348,-14.60078 19.73235,-31.71736 27.59337,-48.73055 6.23495,-14.61228 12.86893,-29.09819 18.64499,-43.94021 1.97523,-7.7197 2.68352,-15.1522 6.95321,-21.89544 2.30444,-3.71051 6.45442,-8.79953 10.84382,-7.20275 z"
       fill="#e7dfbd"
       id="path8"
       style="display:inline;stroke-width:1.07051" />
    <path
       id="path9"
       d="m 1660.9233,327.4688 c -1.2944,-0.0345 -2.6683,0.26664 -3.9602,0.32982 -16.7695,2.38943 -33.1511,1.17165 -49.8907,2.77992 -20.7898,1.96438 -42.9155,5.26095 -62.4683,13.96858 -10.8438,4.76737 -22.776,12.2226 -29.39,23.58387 -5.9257,9.43135 -7.402,23.52682 -2.1846,33.73933 3.9005,7.59333 11.0544,11.49937 18.5762,11.74062 9.6168,0.0919 19.7816,-2.89432 27.1439,-10.31533 8.4895,-8.40895 11.9114,-22.73392 8.1206,-34.9223 -0.5188,-1.84951 -1.0572,-2.18286 -2.6334,-2.7917 0.7781,4.26191 2.0447,8.61492 2.0547,12.95725 -0.1397,8.08729 -3.0221,16.16338 -8.0899,21.8153 -4.9481,5.53704 -12.0516,8.77731 -18.9649,8.24888 -5.397,-0.471 -10.1861,-4.30782 -12.4008,-10.00569 -3.7809,-9.82193 -1.4259,-22.42506 4.1107,-30.79955 5.8758,-9.2935 14.6741,-15.31302 23.6923,-19.81617 13.6371,-6.62837 27.8032,-10.08612 42.4279,-12.32621 7.6116,-1.44745 15.2834,-2.16983 22.9748,-2.6638 6.5143,-0.64331 12.9392,-1.10284 19.4735,-0.59738 -1.0774,1.0224 -2.1351,1.98647 -3.4619,2.54937 -17.7571,7.63928 -34.9953,19.42645 -47.126,36.48559 -9.7465,13.27971 -15.7621,28.79836 -23.2042,44.49047 -7.5019,16.84088 -16.3203,32.43078 -28.1317,45.71048 -3.8807,4.06663 -7.8223,8.16673 -12.5907,10.76293 -7.2825,4.15853 -15.2628,5.12384 -23.2934,4.38864 -4.0203,-0.55141 -7.9605,-2.41239 -10.4046,-6.29521 -2.3344,-3.76794 -2.9325,-8.03061 -3.0921,-12.55674 1.7158,-1.0224 3.8901,-1.86107 5.2169,-3.51529 2.5339,-4.26191 1.9048,-10.99313 -1.8661,-14.09479 -4.3395,-3.49224 -10.8139,-2.12474 -13.6969,3.06767 -3.6512,6.75473 -3.8406,16.02422 0.469,22.49176 5.1975,8.15622 14.2854,11.63834 22.6153,13.17769 10.4249,1.43595 21.2994,-0.31113 31.2254,-4.148 15.0238,-5.99655 27.8424,-18.34619 37.2796,-32.88953 7.0031,-10.26995 12.8983,-21.57338 18.0459,-33.18739 0.8579,-1.52785 1.6867,-4.31944 3.6021,-4.11266 8.2899,-0.10339 16.7087,-0.29767 24.9987,0.17332 -1.9653,6.1344 -4.6274,11.90126 -6.3333,18.16203 -3.5215,12.25731 -6.415,25.95041 -5.198,38.89698 0.7183,6.13439 2.4437,12.21088 7.0626,15.88693 5.0678,3.99769 12.3104,3.54965 17.847,1.12576 8.3399,-3.48075 15.503,-11.22263 22.0571,-17.86248 -0.09,3.56117 -0.4291,6.9495 0.5685,10.38431 1.3567,4.76736 5.4963,8.04161 9.8258,8.03012 9.6368,0.29868 17.9874,-5.41174 24.9506,-12.56853 3.8707,-3.94026 7.1927,-8.3623 10.8838,-12.49785 -0.9477,5.28431 -2.1261,10.02899 -1.3779,15.52008 1.1173,5.51407 5.5869,9.33952 10.4352,9.5463 7.3722,0.51694 14.4156,-3.89552 20.042,-8.99603 6.5043,-5.44514 11.6214,-12.09646 17.4773,-18.35722 -0.2794,5.93911 -0.5884,11.4076 1.4467,17.04803 1.7358,5.13498 5.4862,8.91458 10.2248,9.94847 7.3423,1.40149 15.1348,-0.96433 21.2899,-5.67426 3.6512,-2.64216 6.5529,-5.97485 9.9048,-9.06502 0.5586,3.80241 0.4389,8.36319 2.7034,11.40742 2.1449,3.14761 5.3274,4.52645 8.6992,4.91703 5.0179,0.53992 10.3053,-1.06827 14.7944,-3.6415 5.0977,-2.81447 9.5379,-7.68476 14.1966,-11.57907 1.7957,3.46927 3.1718,6.91595 6.1346,9.29389 6.8335,5.73233 16.6103,6.73178 24.7607,5.76682 11.5421,-0.99943 22.6451,-5.60622 31.9925,-13.46377 5.4469,-4.07811 9.706,-9.49987 14.654,-14.23278 0.4889,5.28431 0.3293,10.20062 2.3644,15.09435 2.2745,5.66341 6.7245,9.79849 11.882,11.57907 6.5642,2.29753 13.6863,1.30928 20.2305,-0.60915 15.5724,-5.112 28.5807,-18.09324 35.8431,-34.6699 2.0152,-4.43423 3.1239,-9.02863 4.6602,-13.69261 2.4341,2.26307 5.1173,5.28349 8.16,6.32886 3.0526,1.10282 5.9055,0.72455 9.028,0.56373 -6.4843,13.52094 -14.2462,26.28369 -20.5709,39.89654 5.9157,0.22975 11.8611,-0.42566 17.7768,-0.62095 9.7166,-19.52898 21.3588,-37.94286 34.7764,-54.31274 5.0578,-5.65192 10.8738,-12.70568 17.5577,-15.58908 2.2146,-0.80413 5.8965,-1.27449 7.4527,1.21832 1.5862,2.46984 0.9069,4.99729 0.079,7.62795 -2.0151,5.78977 -5.7762,11.1316 -8.9286,16.17468 -5.0678,8.08729 -10.684,16.07117 -13.7466,25.514 -1.5463,4.67547 -2.0149,10.92461 0.2995,15.37033 2.0551,4.15852 5.9455,6.42086 10.0057,6.73103 5.0578,0.50545 10.0157,-1.09083 14.3253,-4.08911 7.1627,-5.16943 12.8099,-11.74103 18.566,-18.78295 5.766,-7.54738 11.6721,-14.95725 17.2187,-22.74587 2.5339,-3.65307 5.296,-6.4904 7.0318,-10.79826 -2.065,-0.19529 -3.1513,2.10266 -4.3883,3.59605 -6.3048,9.14416 -13.1187,17.76027 -19.8126,26.52534 -5.8758,6.88109 -11.8722,14.42769 -18.9152,19.58564 -2.4042,1.67719 -5.1465,3.43558 -8.0694,2.81525 -2.065,-0.53992 -3.0534,-2.84944 -3.1432,-5.12399 0.04,-3.73348 1.3972,-7.44294 2.9036,-10.69395 5.8758,-12.34921 15.7313,-23.47038 20.2304,-36.49736 1.6161,-4.39976 2.2648,-9.05161 0.9878,-13.69262 -1.0075,-4.26191 -4.2391,-7.2611 -7.9202,-8.12267 -5.3571,-1.28662 -11.1741,0.72357 -15.9226,3.5725 -7.2026,4.48018 -13.6661,11.18941 -19.3025,17.9786 -3.0925,3.64158 -5.4565,7.67486 -8.9082,10.91437 1.8456,-4.50315 4.5086,-8.00688 6.9428,-12.06202 3.6811,-6.00803 7.5219,-11.9028 11.0534,-18.02571 -6.6739,-0.57438 -13.4084,0.59877 -20.1122,0.58728 -3.6911,6.24928 -6.7931,12.94558 -10.2248,19.37866 -1.7657,3.23951 -3.2315,6.99711 -5.496,9.7886 -4.4593,2.76852 -11.2634,2.27427 -14.5854,-2.59649 -4.2098,-5.45663 -3.4416,-12.94654 -7.1925,-19.21879 -3.7909,-6.62837 -10.2554,-10.19039 -17.039,-10.63841 -8.8885,-0.56289 -17.946,2.63157 -25.6973,7.5253 -11.1331,6.89258 -21.0195,17.3339 -26.0274,30.91229 -1.2869,3.28547 -1.7855,7.74347 -4.0201,10.30522 -7.1926,8.71911 -15.4237,16.71491 -24.9008,21.95327 -2.1947,1.33257 -4.2588,2.23848 -6.7528,2.65204 2.504,-4.06662 5.4469,-6.89138 6.9632,-11.68172 2.504,-7.40953 1.2064,-15.57696 -2.5046,-22.12492 -3.8807,-7.09936 -9.1576,-12.82101 -10.3448,-21.50567 -0.7681,-5.67489 0.9376,-12.61268 6.0353,-14.74938 4.2996,-2.05628 9.9053,-0.44945 11.711,4.84635 1.8455,7.82308 -0.4982,13.73926 -2.3936,21.01093 4.3295,1.37852 8.6789,1.18377 12.37,-2.03277 4.8982,-4.31935 5.8457,-12.57849 2.5237,-18.47165 -2.3144,-4.22745 -6.9531,-6.67438 -11.0432,-7.82315 -7.9608,-1.97587 -16.7392,-0.68908 -23.872,3.91746 -5.4468,3.58414 -9.7658,9.99474 -9.8157,17.45021 -0.2793,2.86043 0.4586,5.34111 -1.2772,7.66162 -2.1548,3.02124 -4.1199,6.74378 -6.7834,9.16767 -2.3544,0.10339 -4.839,-0.4486 -7.1633,-0.0236 -4.5092,1.32108 -7.4623,5.63946 -8.9886,10.49873 -1.1872,3.80241 -0.9079,7.45701 -1.3269,11.32834 -1.0375,2.25158 -3.2019,3.97374 -4.8779,5.59349 -4.3295,3.8139 -9.5774,8.16861 -15.0442,9.24845 -2.065,0.35611 -3.9497,0.18355 -4.9174,-2.26332 -0.9776,-3.3429 0.599,-7.70896 1.6864,-10.8336 2.6635,-6.6858 5.5852,-13.33613 8.8673,-19.64285 10.0956,-20.1608 21.4287,-39.64467 32.4222,-59.15068 8.0805,-14.11831 15.8812,-28.44298 23.8121,-42.66467 1.7358,-2.9753 3.4229,-5.96298 4.7098,-9.24844 -6.604,0.1723 -13.1592,0.29988 -19.7234,1.24187 -14.2955,26.36412 -27.9417,53.25695 -42.327,79.54066 -2.5139,-4.58357 -4.3497,-8.90337 -8.9885,-11.08602 -6.5342,-2.91786 -14.3451,-1.38989 -20.7696,1.26376 -8.1503,3.26249 -15.0141,8.96056 -21.249,15.71529 -4.8982,5.77828 -9.3278,11.72849 -12.2707,19.13801 -1.5662,3.8139 -2.175,7.50199 -4.7887,10.62663 -6.5542,8.07581 -13.6471,16.02469 -21.6976,22.11314 -2.7235,1.92992 -6.3343,4.6179 -9.6463,4.16989 -2.1847,-0.31017 -2.8836,-3.10122 -2.6142,-5.28387 0.5486,-7.19126 4.3199,-14.4287 7.3825,-20.62054 8.1304,-15.38194 16.8597,-30.38558 24.8205,-45.89389 -6.0953,0.32166 -12.3705,0.23013 -18.376,1.53972 -8.1903,14.60079 -15.3129,30.40726 -24.7401,43.98565 -5.0578,7.09936 -10.7143,13.86621 -17.1588,19.31135 -3.2521,2.64216 -7.4023,5.60518 -11.4625,5.80047 -2.8232,0.10339 -4.5681,-3.52653 -4.2788,-6.42141 0.3691,-3.97472 1.7751,-7.8805 3.2515,-11.46464 4.1599,-9.91383 9.8963,-19.34464 14.974,-28.74153 4.3495,-8.14473 9.5076,-15.80625 13.4281,-24.22669 -6.215,-0.20678 -12.4404,0.58551 -18.6654,0.7808 -6.9732,12.83169 -13.7371,25.82419 -20.1516,39.03497 -2.3144,4.61803 -3.7707,10.09676 -7.0128,13.74983 -4.579,5.30729 -9.796,10.80998 -15.6419,14.18735 -3.4317,1.97587 -7.8508,2.14785 -10.6939,-1.20654 -2.514,-3.19356 -3.3923,-8.27093 -3.4721,-12.45243 0.1796,-18.08154 5.1077,-35.15137 11.5122,-51.46382 7.3423,-18.09302 16.6501,-35.16327 29.0203,-49.29307 8.1702,-9.64961 17.4271,-18.4615 29.0889,-21.57465 3.9306,-0.91901 8.8185,-1.92985 12.4198,0.66636 4.4991,3.18208 6.5648,9.67233 10.216,13.5092 3.1624,3.53819 9.816,2.59595 11.6117,-2.26332 1.5562,-3.9058 -0.3196,-8.53459 -3.063,-11.0389 -4.6986,-4.3653 -11.8214,-5.43318 -17.6673,-5.54805 -10.9635,0.16082 -21.9672,3.36484 -31.8932,8.70659 -20.3309,10.83284 -36.6706,29.1561 -49.0008,50.45417 -2.1648,4.04365 -4.101,8.23707 -6.3655,12.21179 -8.8586,0.20677 -17.7359,0.11464 -26.5945,0.0572 1.4365,-4.53762 3.7308,-8.43277 5.7459,-12.62576 5.9457,-12.37218 12.5391,-25.2841 20.869,-35.71488 7.8112,-9.8449 17.1186,-17.66777 28.3714,-21.33233 4.988,-1.1143 10.2859,0.42472 15.3337,-0.60917 1.5064,-0.37909 2.7726,-0.79284 3.0819,-2.79169 -0.9727,-1.28087 -2.1865,-1.64998 -3.4809,-1.68444 z m 135.0957,76.11962 c 3.0894,0.11667 6.2284,1.6232 7.8195,4.60066 2.2745,5.2039 1.1162,12.13121 -0.1008,17.50742 -3.0427,12.02756 -8.4489,23.35442 -15.2824,33.07296 -3.9904,5.34175 -8.6501,10.97002 -14.6556,13.09524 -3.312,1.14876 -7.0023,0.94303 -9.5263,-2.07822 -2.6236,-3.50373 -3.0824,-8.70782 -2.5836,-13.13056 1.1971,-13.02699 6.8435,-25.72082 13.4675,-36.18606 4.2497,-6.37564 9.9751,-13.73959 16.8285,-16.18646 1.2346,-0.51336 2.629,-0.74802 4.0332,-0.69498 z m 161.4667,0.0103 c 2.8663,0.0307 5.6085,1.38406 6.8841,4.69322 2.2047,5.82423 0.2701,13.75196 -1.0667,19.66809 -3.5913,13.34864 -9.2482,26.07701 -16.7101,37.11663 -3.8607,5.36472 -8.9087,10.97027 -14.9142,12.77383 -3.6013,0.99942 -7.6807,0.47033 -9.6958,-3.53885 -2.3045,-4.76737 -1.0378,-11.7854 -0.07,-16.86293 2.8332,-12.60194 7.8209,-24.71114 14.2054,-35.44059 4.18,-7.0649 10.1857,-15.10614 17.5081,-17.69086 1.2283,-0.47387 2.5564,-0.73246 3.8594,-0.71854 z m -104.0077,28.17419 c 2.2845,3.76794 4.3987,7.67475 6.7629,11.37377 2.6636,4.2734 5.1084,8.28152 6.0162,13.54285 1.1672,5.36473 -0.3588,11.09681 -3.7307,14.96814 -4.0901,4.70993 -10.2363,7.20381 -15.9824,6.53752 -4.9979,-0.67777 -9.5863,-4.28491 -10.9131,-10.07468 -1.0176,-3.83687 0.279,-7.35291 1.4262,-10.90259 2.0052,0.0689 4.0811,0.2645 6.0762,0.0117 3.0327,-0.68926 5.1878,-3.9408 5.3075,-7.44453 0.2295,-2.86042 -0.978,-5.42156 -1.8559,-7.99479 2.1149,-3.50373 4.3991,-6.85837 6.8931,-10.01747 z"
       style="fill:#ede3bd;fill-opacity:1;stroke-width:1.07051" />
    <path
       id="path10"
       style="display:inline;fill:#ede3bd;fill-opacity:1;stroke-width:1.07051"
       d="m 1321.6453,332.5053 c -4.933,0.15077 -9.8844,0.76626 -14.8075,0.95581 -16.7595,31.37273 -33.3289,62.94123 -49.9886,94.39438 -3.5913,6.55944 -6.4349,14.00454 -10.954,19.5301 -7.1029,9.20159 -15.1831,18.403 -24.3909,24.77864 -3.2122,2.1367 -6.914,4.51421 -10.7348,3.29652 -2.2745,-0.96496 -2.5538,-4.23867 -2.2445,-6.61661 0.828,-5.50258 3.1822,-10.81065 5.4068,-15.73885 5.5865,-11.8897 12.1608,-22.45846 18.5953,-33.73932 2.7434,-4.87076 5.6662,-9.38408 7.7113,-14.72583 -5.9357,-0.27571 -11.9112,0.6073 -17.8368,0.99788 -1.9952,2.18265 -3.1729,5.23874 -5.0883,7.57073 -2.4241,-4.52613 -4.439,-8.89168 -9.028,-10.87904 -4.5989,-1.72315 -9.8857,-1.48094 -14.5444,-0.15986 -9.6966,2.64215 -18.7249,9.60257 -26.0173,17.25334 -4.968,5.6634 -9.9364,12.21138 -12.9093,19.55198 -1.4564,3.44629 -2.2846,6.76693 -4.609,9.63884 -7.5518,9.40837 -16.3999,19.02413 -26.4557,24.74498 -2.7932,1.5738 -6.4337,3.35371 -9.5263,1.89478 -2.7733,-1.78059 -2.9227,-5.20369 -2.2942,-8.40875 1.3368,-5.87018 4.2489,-11.33775 6.703,-16.6795 6.5641,-12.70533 13.2885,-25.28524 19.8227,-38.01354 0.9877,-1.55083 1.7157,-4.12402 3.7308,-3.97469 7.2725,-0.26421 14.564,0.11534 21.8364,-0.11441 0.3591,-1.24067 0.7092,-2.47064 1.1282,-3.67684 -7.3722,-0.20678 -14.7648,0.27631 -22.117,-0.24063 4.2796,-9.19011 9.8756,-17.51888 14.2551,-26.65155 -6.3547,-0.023 -12.7489,0.25289 -19.0935,0.73537 -4.8783,8.48937 -8.8677,17.64551 -13.8357,26.06594 -4.5091,0.12637 -9.0096,0.0346 -13.5187,0.069 -0.4788,1.21769 -0.9569,2.44626 -1.4058,3.68693 4.3595,0.0804 8.6986,-0.0342 13.0481,0.27598 -5.2274,11.39573 -11.642,22.11417 -17.3283,33.22271 -3.3519,6.80068 -7.9608,12.03917 -12.8391,17.36944 -5.1575,5.5715 -10.854,11.00442 -17.1587,14.74939 -2.5938,1.51637 -5.1774,2.66555 -8.1104,1.87291 -2.3543,-1.03389 -2.7729,-3.65385 -2.5135,-6.26155 0.5188,-4.65249 2.4639,-9.20206 4.1897,-13.40654 5.6264,-12.67086 13.1579,-24.7785 19.9615,-36.70267 2.7334,-4.76737 5.5571,-9.39623 7.7318,-14.55418 -6.0952,-0.29868 -12.2006,0.74573 -18.3059,1.02144 -1.4864,2.60769 -3.0323,5.15868 -4.6484,7.6515 -2.484,-4.42274 -4.3888,-8.788 -8.898,-10.86726 -7.013,-2.72257 -14.6749,-0.87259 -21.3688,2.2061 -11.7117,5.83572 -21.6275,15.57752 -28.9399,27.5821 -4.569,7.76564 -7.8915,17.26512 -7.8516,26.74242 0.1596,6.51349 1.7864,13.81969 6.3055,18.16202 4.8184,4.641 11.9711,4.31857 17.6674,2.35418 8.1104,-2.81448 13.5563,-8.81068 19.6416,-15.16334 0.1596,3.99769 -0.4192,8.01799 1.8353,11.38386 2.6736,4.15853 7.2436,5.49219 11.5532,5.14756 7.7014,-0.7467 14.0861,-4.89331 20.0916,-10.18911 5.5566,-4.50316 9.9755,-10.20221 15.0633,-15.29123 -0.6385,5.61745 -2.4743,10.93739 -0.4691,16.41699 1.8356,4.81332 5.9057,6.96073 10.2453,7.52363 7.2125,1.16025 14.1255,-2.02239 20.131,-6.31877 4.5291,-3.46926 8.9394,-7.22488 12.9297,-11.49828 3.1524,-3.20506 5.8749,-6.81245 9.2269,-9.75328 -0.03,5.90464 -0.6586,11.15496 1.1471,16.85283 1.646,5.70936 5.3881,10.46549 10.6354,11.74062 7.1627,1.82653 15.1927,-1.31041 21.0985,-5.99736 3.8507,-2.81447 6.8834,-6.47943 10.3052,-9.89126 0.3092,4.07811 -0.1596,8.44395 2.3044,11.75239 3.1325,4.35382 8.3502,5.21494 12.959,4.42229 7.5119,-1.25215 13.4872,-5.62773 19.3829,-10.82014 5.816,-4.90523 10.4241,-10.94843 15.6814,-16.53143 -1.0774,5.54853 -3.3412,11.06293 -2.6728,16.71485 0.4789,4.11257 2.8831,7.66261 6.4445,8.6965 7.1926,2.14818 14.3555,0.18327 20.6703,-3.99823 8.9083,-5.77828 14.7339,-13.92302 22.2557,-21.53932 0.4589,5.9506 0.7585,11.45234 3.5817,16.66772 3.721,7.09936 10.3751,10.58079 17.3882,11.02881 11.4025,0.53992 23.1236,-3.75718 32.8401,-10.50042 7.4121,-4.93969 13.5276,-11.45236 19.7526,-18.12668 0.5088,6.12291 0.4083,11.62535 3.2515,17.09347 3.731,7.48994 10.6747,11.18959 17.9771,11.55719 15.6522,0.41356 30.0977,-7.03167 42.0887,-18.20914 9.976,-9.4773 18.9336,-20.51608 26.9642,-32.17603 1.8655,-2.6077 3.6413,-5.21484 4.8385,-8.32799 -2.8532,0.72372 -4.0596,3.53807 -5.9052,5.89303 -10.764,15.22112 -23.4237,31.30242 -38.6869,40.50402 -5.9456,3.48075 -13.3381,6.16998 -20.0419,4.88336 -4.9381,-0.95347 -9.1278,-4.72159 -11.2127,-9.94847 -2.1448,-5.43365 -2.0445,-11.36084 -0.8973,-17.08169 14.4252,-4.20447 27.9914,-6.96245 41.2194,-15.61264 3.731,-2.5962 7.7225,-6.19092 9.5979,-10.83192 1.7059,-4.1815 1.6651,-9.20218 -0.8388,-12.94715 -2.2147,-3.251 -5.7555,-4.81278 -9.1872,-5.47907 -7.3124,-1.39 -15.0338,0.55167 -21.8175,3.72226 -12.1606,6.00804 -23.4728,15.96722 -30.8849,28.67255 -2.6536,4.23893 -3.7024,9.33908 -6.0367,13.70438 -3.7709,5.14646 -8.6379,9.32828 -13.1869,13.53276 -7.3024,6.00803 -15.7132,11.70579 -24.8512,12.52141 -5.4269,0.53992 -10.843,-1.20576 -14.4144,-6.14544 -3.7709,-5.31878 -4.7284,-13.31504 -3.2719,-19.85151 0.2295,-1.861 2.4631,-1.92921 3.7001,-2.42318 12.7492,-3.19356 25.33,-6.69742 36.8821,-13.92314 3.9705,-2.64216 8.2088,-6.26122 10.3038,-11.08603 2.065,-4.75588 1.7661,-10.97098 -1.8252,-14.65851 -3.8507,-3.84836 -9.5267,-4.70956 -14.4349,-4.49129 -10.2053,0.49397 -19.5233,5.60584 -27.933,11.92404 -9.4871,7.53589 -19.0529,18.29965 -22.8039,31.14282 -0.6883,2.15968 -1.5064,4.19285 -2.8831,5.89302 -6.4943,8.32854 -13.9465,16.81797 -22.396,22.46989 -2.7135,1.70017 -6.1757,3.88278 -9.3481,3.1131 -1.9253,-0.6433 -2.5931,-3.07868 -2.623,-5.16943 0.03,-4.00919 1.6062,-8.05213 3.0527,-11.63628 2.9728,-7.06489 6.6139,-13.80853 10.1853,-20.49433 19.1337,-35.29002 38.5164,-70.47703 57.5903,-105.79003 -1.6385,-0.0862 -3.2802,-0.0873 -4.9246,-0.037 z m 93.9304,70.9973 c 2.5838,0.11487 4.6384,1.83724 4.7581,4.9389 0.04,6.23779 -3.4413,12.48782 -7.0626,16.86461 -7.9109,9.4773 -18.6258,15.92087 -29.7889,18.51708 1.3368,-6.29522 4.1008,-11.64826 7.1634,-17.02447 3.9405,-6.66283 8.6487,-13.16535 14.2551,-18.0476 3.0127,-2.52728 6.8642,-5.09919 10.6749,-5.24852 z m -73.8008,0.0471 c 2.189,-0.0218 4.2798,0.97022 4.8765,3.76602 0.7881,6.57093 -3.2121,13.62499 -7.0129,18.18558 -7.9408,9.35094 -18.6553,15.76073 -29.7684,18.34545 2.0151,-8.55829 6.634,-16.50707 11.3427,-23.43411 4.5789,-6.46754 10.6252,-13.60239 17.6483,-16.27901 0.9041,-0.3554 1.9188,-0.57398 2.9138,-0.58393 z m -139.1157,0.0522 c 1.8569,-0.0546 3.717,0.36527 5.4565,1.19812 2.484,1.47042 3.5613,5.14717 3.6212,8.1799 0.4489,7.52441 -1.8244,14.26746 -4.3283,21.06815 -4.3695,11.33829 -10.2462,22.33187 -17.8179,31.21181 -2.9629,3.48076 -6.7538,6.8341 -10.8839,8.10923 -3.2621,0.99942 -7.1424,-0.1027 -8.9081,-3.61794 -2.6636,-5.80126 -2.315,-12.83117 -0.9383,-19.00003 2.7035,-11.61401 7.8619,-22.56267 14.3064,-31.98253 4.1899,-5.77828 9.6868,-12.53207 16.1811,-14.5424 1.0849,-0.38771 2.1972,-0.59159 3.3113,-0.62431 z m -143.7087,10e-4 c 1.8585,-0.0181 3.7208,0.43493 5.423,1.31086 2.9529,1.99885 3.6009,6.74355 3.551,10.35066 -0.2394,7.69672 -3.1529,15.60116 -5.9461,22.50523 -4.3695,10.31589 -10.015,20.42391 -17.1777,28.45377 -2.8831,3.19356 -6.5844,6.28355 -10.5449,7.28298 -3.1324,0.72372 -6.5546,-0.34476 -8.3003,-3.58427 -2.7434,-5.76679 -2.4732,-12.56589 -1.1164,-18.75773 2.6136,-11.82078 7.9602,-22.99863 14.4845,-32.55634 4.1998,-5.80126 9.7773,-12.52162 16.3215,-14.45154 1.0774,-0.36186 2.1904,-0.54272 3.3054,-0.55362 z" />
    <path
       d="m 1088.877,515.56539 c -1.32,3.97 -2.6,7.88 -4.86,11.44 -4.84,-2.44 -9.79,-4.41 -15.25,-4.83 -4.14,-0.34 -9.42,-0.15 -12.85,2.48 -2.63,1.95 -3.29,6.14 -0.85,8.52 2.46,2.38 6.57,3.22 9.79,4.04 6.79,1.71 15.11,3.15 20.81,7.39 9.17,6.51 7.39,22.35 -1.75,28.07 -7.41,5.29 -16.36,5.79 -25.15,5.18 -7.43,-0.83 -15.68,-2.86 -21.72,-7.48 1.56,-3.7 3.21,-7.35 4.94,-10.98 1.6,0.66 3.2,1.32 4.75,2.12 5.79,3.06 12.5,4.44 19.02,4.23 3.11,-0.19 6.94,-0.68 9.22,-3.02 2.2,-2.01 2.12,-6.33 -0.39,-8.06 -3.16,-2.5 -7.99,-3.22 -11.81,-4.29 -6.8,-1.83 -14.46,-3.09 -19.73,-8.15 -6.66,-6.16 -5.77,-17.98 0.04,-24.39 3.89,-3.89 9.19,-6.55 14.65,-7.26 10.29,-1.63 22.08,-0.45 31.14,4.99 z"
       fill="#e7dfbd"
       id="path23" />
    <path
       d="m 1149.087,515.53539 c -1.12,3.92 -2.81,7.6 -4.46,11.32 -4.35,-1.51 -8.21,-3.63 -12.84,-4.31 -4.79,-0.81 -10.94,-0.94 -15.18,1.77 -3.41,2.04 -3.88,7.48 -0.38,9.68 3.42,2.3 8.18,2.95 12.12,3.98 6.53,1.66 14.74,3.36 19.53,8.43 7.32,7.7 4.45,21.56 -4.48,26.76 -5.93,4.02 -12.63,4.86 -19.64,4.91 -9.1,-0.11 -18.89,-2.31 -26.46,-7.57 1.59,-3.87 2.96,-7.72 5.33,-11.21 4.83,2.69 9.72,5.02 15.23,5.89 4.89,0.78 10.94,1.14 15.51,-1.09 3.25,-1.52 4.72,-5.6 2.34,-8.57 -2.4,-2.72 -7.02,-3.64 -10.39,-4.57 -7.33,-2.06 -16.61,-3.26 -22.16,-8.87 -6.94,-6.59 -5.59,-18.84 1.05,-25.14 3.8,-3.31 8.51,-5.67 13.53,-6.34 10.39,-1.68 22.18,-0.5 31.35,4.93 z"
       fill="#e7dfbd"
       id="path24" />
    <path
       d="m 1278.6669,511.64539 c 5.84,1.6 11.22,4.78 15,9.57 -3.15,3.06 -6.15,6.19 -9.72,8.77 -3.03,-2.48 -5.82,-4.81 -9.62,-6.04 -7.37,-2.33 -16.1999,-1.23 -22.1099,4.01 -9.34,7.94 -9.03,24.85 0.58,32.47 6.94,5.73 17.8699,5.89 25.6799,1.88 0.34,-6.5 -0.37,-12.95 0.48,-19.38 4.5,-0.05 8.99,-0.06 13.49,0.01 0.19,7.86 0.02,15.71 0.11,23.57 -0.19,1.76 0.38,3.34 -1.5,4.26 -11.37,7.31 -26.57,9.56 -39.3499,4.81 -7.77,-2.83 -14.4,-8.55 -18.12,-15.95 -3.64,-6.95 -4.27,-15.52 -2.85,-23.14 1.96,-10.32 9.28,-18.96 18.78,-23.23 9.02,-3.97 19.7299,-4.28 29.1499,-1.61 z"
       fill="#e7dfbd"
       id="path25" />
    <path
       d="m 1964.8069,515.60539 c -1.22,3.96 -2.68,7.79 -4.85,11.35 -7.66,-3.85 -16.27,-6.4 -24.79,-3.99 -3.34,1 -6.36,3.8 -5.64,7.57 0.93,3.71 5.04,4.95 8.27,5.91 7.99,2.22 18.54,3.52 24.95,9.09 8.22,7.35 5.7,22.06 -3.44,27.51 -7.12,4.93 -16.17,5.41 -24.54,4.82 -7.44,-0.84 -15.73,-2.85 -21.76,-7.51 1.53,-3.7 3.21,-7.33 4.96,-10.94 4.64,1.82 8.68,4.46 13.67,5.37 5.46,1.14 12.47,1.81 17.6,-0.8 3.1,-1.54 4.42,-5.32 2.33,-8.24 -2.4,-3.04 -7.48,-3.93 -11.03,-4.91 -7.45,-2.07 -16.46,-3.29 -22.02,-9.11 -6.57,-6.8 -5.1,-18.71 1.57,-24.89 3.84,-3.34 8.58,-5.62 13.65,-6.27 10.24,-1.6 22.1,-0.47 31.07,5.04 z"
       fill="#e7dfbd"
       id="path26" />
    <path
       d="m 2024.9569,515.53539 c -1.09,3.76 -2.48,7.51 -4.38,10.94 -2.04,0.29 -4.58,-1.66 -6.6,-2.23 -6.25,-2.3 -14.66,-3.44 -20.79,-0.32 -3.84,1.84 -4.73,7.72 -0.94,10.08 3.81,2.56 9.19,3.16 13.57,4.35 6.41,1.64 13.97,3.39 18.5,8.6 5.71,6.56 4.31,17.54 -1.55,23.56 -4.68,4.28 -10.7,6.74 -17.02,7.24 -10.95,1.16 -23.25,-0.91 -32.46,-7.23 1.58,-3.9 2.89,-7.76 5.28,-11.27 7.06,4.24 14.88,6.82 23.19,6.5 3.2,-0.17 6.88,-0.65 9.32,-2.94 1.84,-1.59 1.99,-4.58 1.04,-6.67 -1.49,-2.24 -4.45,-3.36 -6.91,-4.12 -5.73,-1.67 -11.65,-2.81 -17.3,-4.72 -4.52,-1.6 -8.96,-4.28 -11.41,-8.54 -3.75,-6.96 -2.03,-16.46 3.7,-21.84 3.83,-3.32 8.49,-5.65 13.55,-6.32 10.28,-1.65 22.17,-0.55 31.21,4.93 z"
       fill="#e7dfbd"
       id="path27" />
    <path
       d="m 880.02696,511.03539 c 4.06,-0.3 8.18,-0.08 12.25,-0.03 8.33,13.44 16.17,27.22 24.67,40.56 2.96,-3.78 5.05,-8.18 7.61,-12.28 5.66,-9.39 11,-19 16.88,-28.26 4.07,-0.14 8.14,-0.13 12.21,-0.1 0.58,4.87 0.28,9.69 0.34,14.57 0.06,14 0.04,28 0.1,42 0.07,3.21 0.11,6.39 -0.38,9.58 -4.53,-0.04 -9.06,-0.05 -13.59,-0.01 -1.02,-12.88 0.05,-25.95 -0.6,-38.87 -7.02,10.26 -12.56,21.54 -19.6,31.78 -2.1,-0.02 -4.2,-0.03 -6.3,-0.01 -6.95,-9.91 -12.31,-21 -19.47,-30.74 -0.56,12.57 0.47,25.29 -0.53,37.82 -4.56,0 -9.13,0 -13.7,-0.01 -0.69,-4.52 -0.37,-8.99 -0.41,-13.54 -0.02,-14.33 0.02,-28.67 -0.02,-43 0.03,-3.07 -0.27,-6.48 0.54,-9.46 z"
       fill="#e7dfbd"
       id="path28" />
    <path
       id="path29"
       d="m 998.00354,510.89822 c -2.49625,-0.0125 -4.99131,0.0223 -7.46631,0.23731 -8.99,19.46 -17.47011,39.26978 -26.37011,58.77978 -1.16,2.32 -1.99043,4.56035 -2.44043,7.11035 4.73,-0.28 10.53025,0.65979 15.01025,-0.47021 2.33,-3.93 3.36061,-8.60033 5.62061,-12.59033 0.46,-1.27 2.29914,-0.94959 3.36914,-1.07959 9.13,0.09 18.26991,-0.10989 27.39991,0.12011 2.43,4.51 3.89,9.41971 6.29,13.94971 5.11,0.14 10.2211,0.0998 15.3311,0.0498 -0.79,-3.15 -2.181,-6.01995 -3.561,-8.93995 -7.09,-15.9 -14.2001,-31.7897 -21.2901,-47.6997 -1.36,-3.19 -2.7394,-6.37041 -4.4194,-9.42041 -2.48,0.025 -4.9774,-0.0344 -7.47366,-0.0469 z m 0.16406,15.67676 c 3.53,8.16 6.8998,16.41014 10.2598,24.64014 -6.89,0.08 -13.80095,0.10974 -20.69095,-0.0103 1.3,-4.4 3.34078,-8.43943 5.05078,-12.66943 1.71,-4.09 3.06037,-8.15045 5.38037,-11.96045 z"
       style="fill:#ede3bd;fill-opacity:1" />
    <path
       id="path30"
       d="m 1190.8722,510.90555 c -2.4725,-0.01 -4.9448,0.0147 -7.4048,0.15966 -2.81,5.08 -4.7905,10.60961 -7.2905,15.84961 -7.29,16.62 -14.9503,33.11055 -22.0503,49.81055 4.85,0.51 10.13,0.44967 15,0.15967 2.88,-4.03 3.9903,-9.39908 6.3603,-13.80908 10.13,-0.3 20.4194,-0.25051 30.5494,-0.0205 2.3,4.34 3.6204,9.10969 5.9004,13.42969 4.68,1.19 10.5804,0.2899 15.4804,0.3999 -0.78,-3.6 -2.4802,-6.74959 -3.9902,-10.07959 -6.99,-15.66 -13.9995,-31.32951 -20.9795,-46.99951 -1.29,-3 -2.5904,-5.99059 -4.1704,-8.85059 -2.46,0.005 -4.9323,-0.0398 -7.4048,-0.0498 z m -0.095,15.77929 c 2.8,5.12 4.5199,10.54012 6.9199,15.87012 1.28,2.82 2.4199,5.66016 3.1699,8.66016 -6.73,0.08 -13.4804,0.11095 -20.2104,-0.0191 2.39,-7.47 5.8401,-14.68043 8.8301,-21.94043 0.42,-0.86 0.8505,-1.7208 1.2905,-2.5708 z"
       style="fill:#ede3bd;fill-opacity:1" />
    <path
       d="m 1307.0569,511.01539 c 16.43,-0.18 32.99,-0.03 49.44,-0.07 0.19,4.07 0.19,8.1 0,12.17 -11.48,0.25 -23.03,-0.37 -34.48,0.3 -0.07,4.6 -0.1,9.21 0.04,13.81 3.91,0.56 7.78,0.27 11.7,0.34 6.34,0.31 12.51,-0.8 18.85,0.1 0.22,3.89 0.23,7.74 0.02,11.63 -10.19,0.23 -20.45,-0.41 -30.6,0.33 -0.09,4.95 -0.08,9.91 -0.02,14.87 11.9,0.52 23.85,0.03 35.75,0.24 0.35,4.13 0.42,8.2 -0.12,12.32 -16.88,-0.06 -33.77,-0.02 -50.65,-0.02 -0.35,-4.19 -0.19,-8.35 -0.13,-12.54 -0.01,-13.67 -0.01,-27.33 -0.01,-41 0.04,-4.11 -0.38,-8.41 0.21,-12.48 z"
       fill="#e7dfbd"
       id="path31" />
    <path
       id="path32"
       d="m 1420.7574,510.12478 c -5.95,0.06 -12.1802,1.50065 -16.4502,5.91065 -4.72,4.84 -5.2897,12.92957 -1.6597,18.55957 1.27,1.98 2.7895,3.81996 4.1895,5.70996 -4.09,2.85 -8.0495,5.07023 -10.9995,9.24023 -3.64,5.15 -4.6705,12.57083 -1.2305,18.09083 3.03,4.78 8.4803,7.86953 13.8603,9.26953 7.36,1.87 15.4003,1.60959 22.5103,-1.17041 3.17,-1.25 5.9291,-3.00903 8.8491,-4.74903 2.67,2.25 5.1999,4.64987 7.8999,6.85987 2.85,-2.85 5.4801,-5.82082 7.8501,-9.09082 -2.48,-2.33 -4.9895,-4.6294 -7.3095,-7.1294 2.5,-4.88 5.0399,-9.39974 5.4799,-14.98974 -3.67,-1.35 -7.4106,-2.49008 -11.1606,-3.58008 -1.39,3.28 -1.89,6.67974 -3.75,9.73974 -4.17,-3.15 -7.8492,-6.98076 -11.6792,-10.53076 3.55,-3.1 7.1993,-4.63908 9.8393,-8.55908 3.81,-5.35 3.5101,-13.50979 -1.1499,-18.27979 -3.81,-4.02 -9.7593,-5.26127 -15.0893,-5.30127 z m 0.076,10.03711 c 1.0081,0.002 1.9907,0.14834 2.8432,0.42334 2.88,0.87 4.4405,4.18069 3.2505,6.95069 -1.45,3.32 -5.0405,5.08904 -8.0405,6.76904 -3.01,-2.64 -5.7397,-5.33949 -4.9497,-9.72949 0.6225,-3.1125 3.8721,-4.41873 6.8965,-4.41358 z m -5.9663,27.95362 c 3.4,2.22 6.0897,5.27931 9.2197,8.04931 2.39,2.28 4.9306,4.05018 6.6606,6.93018 -3.2,1.59 -6.3512,3.02004 -9.9712,3.29004 -4.22,0.47 -9.3399,-0.22994 -12.2299,-3.68994 -1.71,-1.94 -1.7001,-4.3593 -1.2701,-6.7793 1.14,-3.8 4.3109,-5.95029 7.5909,-7.80029 z"
       style="fill:#ede3bd;fill-opacity:1" />
    <path
       d="m 1486.9269,511.00539 c 5.12,-0.2 10.25,-0.03 15.37,-0.06 5.37,15.09 9.84,30.54 14.91,45.73 2.42,-4.43 3.48,-9.63 5.26,-14.41 3.69,-10.39 6.76,-21.05 10.76,-31.31 4.62,-0.04 9.23,-0.11 13.84,0.09 5.36,15.05 9.68,30.48 14.97,45.55 2.28,-3.28 2.95,-7.65 4.37,-11.37 3.9,-11.4 7.28,-23.03 11.55,-34.28 4.6,-0.02 9.19,-0.05 13.78,0 -0.28,3.2 -1.34,6.12 -2.41,9.12 -5.33,16.33 -10.7,32.66 -16.04,48.99 -0.81,2.74 -1.69,5.42 -2.94,8 -5.31,-0.05 -10.62,0.06 -15.93,-0.1 -5.03,-14.26 -9.33,-28.82 -14.25,-43.13 -0.73,-0.15 -1.14,0.1 -1.22,0.75 -4.49,13.23 -8.87,26.6 -13.31,39.86 -0.57,1.15 -0.56,2.54 -2.19,2.53 -4.99,0.21 -10.01,0.07 -15,-0.02 -6.08,-17.45 -11.53,-35.16 -17.43,-52.68 -1.35,-4.41 -3.09,-8.76 -4.09,-13.26 z"
       fill="#e7dfbd"
       id="path33" />
    <path
       d="m 1601.0569,511.01539 c 16.43,-0.17 32.97,-0.03 49.42,-0.07 0.58,4.2 0.57,7.97 0,12.17 -7.24,0.08 -14.48,-0.01 -21.72,0.03 -4.33,0.07 -8.45,-0.38 -12.74,0.46 -0.01,4.53 -0.08,9.06 0.07,13.59 10.1,1.21 20.37,-0.72 30.53,0.45 0.26,3.91 0.27,7.74 0.01,11.65 -10.17,0.24 -20.43,-0.43 -30.58,0.34 -0.08,4.95 -0.07,9.9 -0.02,14.85 11.9,0.55 23.86,0.04 35.78,0.24 0.35,4.14 0.47,8.21 -0.14,12.33 -16.89,-0.07 -33.79,-0.01 -50.68,-0.02 -0.33,-19.17 -0.02,-38.37 -0.15,-57.54 0,-2.81 -0.1,-5.68 0.22,-8.48 z"
       fill="#e7dfbd"
       id="path34" />
    <path
       d="m 1665.0669,511.06539 c 4.76,-0.37 9.6,-0.05 14.38,-0.11 0.35,17.78 -0.27,35.62 0.31,53.39 10.87,0.73 21.83,0.03 32.73,0.38 0.12,4.09 0.12,8.19 -0.04,12.29 -14.57,0.06 -29.13,-0.06 -43.7,0.06 -1.26,-0.14 -3.27,0.31 -4.26,-0.6 -0.41,-3.28 -0.19,-6.67 -0.21,-9.98 0.01,-15 0.01,-30 0,-45 0.02,-3.31 -0.2,-6.7 0.21,-9.99 z"
       fill="#e7dfbd"
       id="path35" />
    <path
       d="m 1722.0369,511.04539 c 4.79,-0.32 9.62,-0.04 14.42,-0.09 0.37,17.77 -0.32,35.61 0.33,53.36 10.88,0.78 21.85,0.06 32.75,0.39 0.15,4.11 0.15,8.21 -0.05,12.32 -15.9,0.05 -31.8,-0.09 -47.7,0.07 -0.79,-3.88 -0.42,-7.67 -0.46,-11.6 -0.02,-16.67 0.04,-33.33 -0.04,-50 0.18,-1.26 -0.29,-3.6 0.75,-4.45 z"
       fill="#e7dfbd"
       id="path36" />
    <path
       d="m 1824.1569,511.02539 c 4.83,-0.27 9.69,-0.01 14.53,-0.11 0.22,1.86 0.46,3.7 0.44,5.58 -0.17,20.08 0.11,40.18 -0.14,60.26 -4.18,0.54 -8.33,0.3 -12.52,0.17 -8.17,-9.56 -15.93,-19.47 -24,-29.12 -2.97,-3.4 -5.27,-7.22 -8.77,-9.83 -0.55,12.86 -0.13,25.8 -0.2,38.68 -4.92,0.67 -10,0.37 -15.02,0.19 -0.18,-21.89 -0.17,-43.81 0,-65.71 4.13,-0.26 8.26,-0.24 12.39,-0.12 8.48,9.67 16.36,19.89 24.62,29.75 2.87,3.3 4.86,6.76 8.25,9.2 0.74,-12.94 -0.12,-25.99 0.42,-38.94 z"
       fill="#e7dfbd"
       id="path37" />
    <path
       d="m 1855.0369,511.01539 c 16.43,-0.17 32.98,-0.03 49.43,-0.07 0.18,4.07 0.18,8.1 0,12.17 -11.48,0.25 -23.03,-0.36 -34.48,0.29 -0.09,4.59 -0.13,9.18 0.06,13.78 10.1,1.33 20.44,-0.2 30.51,0.49 0.15,3.87 0.16,7.73 0,11.6 -10.17,0.27 -20.42,-0.39 -30.56,0.33 -0.11,4.97 -0.1,9.93 -0.02,14.89 11.88,0.53 23.82,0.03 35.71,0.24 0.39,4.15 0.44,8.17 -0.1,12.31 -16.87,-0.03 -33.75,-0.02 -50.62,-0.01 -0.41,-3.84 -0.41,-7.68 -0.35,-11.54 0.01,-14.33 0.01,-28.67 0,-43 0.03,-3.77 -0.24,-7.76 0.42,-11.48 z"
       fill="#e7dfbd"
       id="path38" />
  </g>
</svg>
