<?xml version="1.0" encoding="UTF-8" standalone="no"?>
<svg
   version="1.1"
   viewBox="0 0 1024 1024"
   width="1024pt"
   height="1024pt"
   id="svg4"
   xmlns="http://www.w3.org/2000/svg"
   xmlns:svg="http://www.w3.org/2000/svg">
  <defs
     id="defs4" />
  <path
     id="path2"
     fill="#e7dfbd"
     d="m 409.00635,215.24414 c -4.17469,0.32531 -8.18924,3.28559 -8.40674,7.72559 0.12,5.59 3.81994,11.36095 5.93994,16.48095 6.31,14.51 13.08072,28.78953 19.99072,43.01953 13.68,27.63 27.29969,55.26909 41.17969,82.80909 6.67,13.64 13.0799,27.89082 21.3999,40.59082 5.98,9.5 12.57073,18.60955 19.99073,27.03955 3.96,4.83 8.529,9.08041 12.479,13.92041 -11.91,-2.14 -23.81938,-3.31969 -35.85938,-4.42969 -3.13,-9.49 -6.54076,-18.89084 -9.78076,-28.36084 -5,-13.39 -10.53931,-27.53945 -18.54931,-39.43945 -4.97,-7.52 -11.00084,-14.28989 -17.86084,-20.12989 -6.8,-6 -14.32963,-10.81988 -20.86963,-17.12988 -7.63,-7.13 -13.33024,-15.57974 -18.24024,-24.73974 -5.88,-11.1 -11.99912,-22.06018 -17.84912,-33.18018 -8.05,-15.22 -16.76058,-30.0699 -24.60058,-45.3999 -1.45,-2.72 -3.01008,-5.64092 -5.08008,-7.94092 -4.03,-4.94 -13.48988,-1.99906 -14.87988,3.96094 -0.92,3.09 0.74078,6.18013 2.05078,8.89013 13.87,25.79 27.84945,51.52911 41.68945,77.32911 4.84,9.4 9.56064,18.41035 16.41064,26.61035 9.5,10.91 23.12866,19.09035 33.11866,28.86035 13.37,13.67 20.69035,32.01891 27.36035,49.62891 7.03,19.91999 14.42068,40.85037 18.20068,61.63037 0.67,2.97 -0.20992,4.84033 -1.66992,7.34033 -2.82,-7.93 -4.68039,-16.17063 -7.40039,-24.14063 -5.06,-15.74 -10.47004,-31.3797 -16.04004,-46.9497 -1.91,-4.83 -3.56027,-10.15922 -6.53027,-14.44922 -3.6,-5.26 -12.57965,-4.40067 -15.38965,1.06933 -1.83,3.9 -0.0796,8.20944 1.40039,11.91944 10.04,24.21 17.42982,48.77017 25.31982,73.68017 0.68,2.53 1.6601,5.51989 1.1001,8.12989 -1.16,0.35 -2.36033,0.56994 -3.59033,0.68994 -2.06,-2.87 -3.20033,-6.61922 -4.34033,-9.94922 -4.17,-12.66 -8.64989,-25.22018 -13.37989,-37.68018 -3.96,-9.72 -7.90982,-19.43943 -11.81982,-29.16943 -1.42,-3.2 -2.82992,-7.12078 -5.41992,-9.55078 -4.72,-3.86 -12.88938,-1.63004 -14.85938,4.20996 -1.11,3.27 0.96924,7.39039 2.21924,10.40039 6.2,13.57 11.26955,27.52947 16.53955,41.45947 3.28,9.89 7.35072,19.55029 10.24072,29.55029 -1.45,-0.21 -3.49,0.0208 -4.5,-1.23925 -1.91,-2.24 -2.86087,-5.4609 -3.90087,-8.1709 -5.83,-16.49 -12.97996,-32.41026 -19.20996,-48.76026 -2.59,-5.83 -4.44956,-12.5797 -8.28956,-17.6997 -3.8,-4.81 -11.18933,-3.43971 -14.56933,1.05029 -2.31,4.36 -0.34986,8.9794 1.39014,13.1294 5.65,12.61 10.31988,25.58056 15.62988,38.33056 1.97,5.3 4.76,10.52004 6,16.04004 -2.51,1.55 -5.9999,-2.96934 -7.1499,-4.81934 -4.52,-8.06 -8.09034,-16.75091 -11.84034,-25.19091 -5.7,-14.5 -12.89982,-28.47993 -21.56982,-41.41993 -7.05,-10.67 -14.72111,-19.36964 -19.89111,-31.13964 -3.54,-7.42 -4.9795,-15.48016 -5.2295,-23.66016 -0.18,-6.82 0.82067,-13.05965 -0.31933,-19.88965 -0.94,-5.98 -3.47123,-11.23039 -6.51123,-16.40039 -6.22,-10.3 -13.2793,-19.93971 -20.2793,-29.69971 -16.34,-23.23 -33.39027,-45.96974 -50.03027,-68.98974 -1.84,-2.48 -3.70992,-4.66121 -6.91992,-5.24121 -4.74,-1.02 -10.68983,1.96091 -11.06983,7.19091 -0.48,3.81 1.70949,6.41985 3.72949,9.33985 18.73,25.49 36.99096,51.00057 55.48096,76.58057 5.44,7.82 11.40895,15.86001 15.41895,24.52001 3.17,6.72 1.51043,14.39887 1.69043,21.58887 -0.05,15.31 5.03009,30.72063 13.10009,43.64063 3.2,5.05 6.78957,9.85945 10.30957,14.68945 8.18,10.9 14.77018,23.13074 20.43018,35.51074 -24.67,7.32 -49.73986,13.90973 -75.10986,18.21973 -11.2,2.36 -22.62928,3.62037 -34.00928,4.63037 -22.7,1.17 -45.44047,0.429 -67.98047,-2.521 -6.37,-0.53 -12.67029,-2.24871 -19.05029,-2.42871 -5.91,-0.2 -11.32993,7.79897 -7.66993,12.93897 1.44,2.35 3.69985,3.92068 6.33985,4.70068 5.19,1.55 10.95008,1.80942 16.33008,2.39942 21.27,2.24 42.63978,3.26021 64.02978,2.72021 18.59,-0.19 37.06977,-2.30037 55.25977,-6.13037 23.09,-4.8 45.98117,-10.70951 68.70117,-16.99951 3.29,8.04 6.69943,15.68972 11.91943,22.71972 4.07,5.46 10.34059,9.73086 17.10059,10.88086 3.87,0.71 7.74978,-0.79041 11.52978,-0.42041 4.36,3 7.06028,7.01998 12.53028,8.47998 6.24,2.06 11.62879,0.19977 17.25879,-2.49023 6.46,3.2 12.96033,5.66033 20.09033,2.84033 4.73,-1.83 6.64002,-5.66021 10.27002,-8.72021 3.31,-1.94 7.4699,-2.2301 10.8999,-4.1001 6.94,-3.5 10.82037,-10.98027 11.38037,-18.53027 0.58,-8.37 -2.15055,-17.25963 -4.06055,-25.36963 13.99,1 28.01098,2.92951 41.75098,5.74951 16.92,3.27 33.67912,10.5601 49.34912,17.6001 11.28,4.94 22.67117,8.83007 34.95117,10.33007 8.83,0.91 18.16879,-0.52945 26.25879,-4.18945 8.73,-4.47 16.03002,-11.93994 20.02002,-20.93994 3.45,-7.63 6.40018,-15.46983 9.93018,-23.06982 5.3,-11.14 11.99086,-21.52061 20.63086,-30.37061 9.67,-9.5 21.159,-16.93002 34.229,-20.77002 17.07,-5.29 35.41006,-5.71977 52.56006,-0.50977 7.56,2.42 15.441,5.41993 22.021,9.91993 24.97,15.51 41.66884,45.02984 40.56884,74.58984 -0.86,28.97 -15.74992,56.93021 -39.16992,73.97021 -10.92,8.37 -23.11931,14.95 -35.79931,20.25 -15.72,6.86 -33.90069,12.43018 -51.20069,11.43018 -12.29,-1.06 -24.47922,-3.63041 -34.69922,-10.92041 -4.15,-2.75 -7.6305,-6.74025 -12.0205,-9.01025 -3.84,-1.86 -7.6203,-1.18936 -11.5503,-0.0894 -6.57,1.96 -13.03961,4.22973 -19.59961,6.21973 1.17,-11.08 0.37957,-22.28069 -1.69043,-33.20069 -1.15,-5.81 -2.54894,-11.74873 -4.91894,-17.19873 -1.26,-2.69 -2.73059,-5.30005 -5.85059,-6.06005 -5.25,-1.32 -11.03957,2.0991 -11.80957,7.5791 -0.12,3.04 1.12971,6.28043 1.94971,9.19043 4.82,15.75 6.08934,33.41968 1.81934,49.42968 -3.51,16.05 -13.08971,32.04082 -27.44971,40.59082 -15.58,9.18 -32.76973,14.9692 -50.46973,18.4292 -14.36,2.82 -29.04043,5.20061 -43.69043,5.62061 -20.01,0.72 -40.00904,0.45892 -60.01904,0.64892 -6.04,-0.43 -11.36092,5.1309 -10.19092,11.1709 0.85,4.86 5.38041,7.84043 10.17041,7.69043 24.65,-0.14 49.38957,0.0396 74.05957,-0.13037 26.99,-0.38 53.98096,-0.10062 80.98096,-0.14062 48.99,0.41 98,0.16978 147,0.27978 28.34,-0.08 56.65902,0.0212 84.99902,-0.0688 12.57,-0.4 22.63994,9.86922 26.18994,21.19922 2.02,7.74 2.0209,16.16012 2.1709,24.12012 -0.07,7.46 0.30969,15.17006 -0.82031,22.56006 -1.67,11.13 -10.85988,20.56986 -21.62988,23.35986 -9.34,2.57 -20.23065,1.72067 -29.91065,1.93067 -63,0.09 -126,-7.7e-4 -189,-0.0308 -16.98,-0.17 -34.01949,0.25954 -50.97949,-0.48046 -9.83,-0.37 -19.50018,-2.08895 -28.68018,-5.66895 -5.19,-1.98 -10.14961,-4.41088 -15.09961,-6.90088 -20.87,-10.43 -42.77072,-18.89951 -64.99072,-25.99951 -30.23,-9.05 -60.51892,-18.00939 -90.64892,-27.37939 -10.15,-3.49001 -21.15049,-6.98096 -30.25049,-12.73096 -6.08,-3.77 -10.43981,-9.95016 -12.04981,-16.91016 -1.74,-8.36 1.22026,-17.19945 7.51026,-22.93945 8.58,-7.81 19.50011,-13.37963 30.12011,-17.86963 17.74,-7.53 35.71881,-14.52023 53.77881,-21.24023 27.24,-9.82 55.16024,-19.24983 83.49024,-25.31983 5.07,-1.27 12.00984,-1.59008 16.08984,-5.08008 5.51,-4.73 2.45065,-14.71037 -4.58935,-15.88037 -4.26,-0.48 -8.96036,1.21059 -13.11036,2.10059 -33.14,7.5 -64.1605,18.52929 -96.0205,30.02929 -16.11,5.8 -31.89897,11.40983 -47.43897,18.56983 -9.79,4.31 -19.33019,8.44978 -27.70019,15.27978 -9.19,6.93 -16.89024,15.32094 -20.49024,26.46094 -39.98,0.12 -79.95994,0.15947 -119.93994,0.20947 -4.58,0.08 -9.29984,-0.3397 -13.83984,0.3003 -5.31,1.09 -8.14077,7.66047 -6.03077,12.48047 0.96,2.12 2.77098,4.16925 5.00098,4.98925 2.19,0.6 4.61012,0.57084 6.87012,0.61084 42.57,-0.05 85.14972,0.0997 127.71972,0.21973 1.49,6.19 3.50918,12.08924 7.40918,17.21924 6.38,8.63 15.00098,13.89047 24.50098,18.48047 16.91,7.81 33.7692,11.87933 51.4292,17.56933 14.8,4.05 29.4807,8.50026 44.2207,12.76026 20.01,5.95 40.47036,12.01037 59.61036,20.38037 4.14,1.62 8.10906,3.49025 11.78906,6.01025 -2.56,0.22 -5.11018,0.39971 -7.68018,0.44971 -107.34,-0.05 -214.65978,0.0296 -322.02978,-0.19043 -6.86,-0.96 -12.00028,8.24094 -8.03028,13.71094 2.07,3.32 5.30127,4.24945 9.05127,4.18945 108.33,0.19 216.66928,0.0195 325.00928,0.26953 53.33,0.56 106.66049,0.27111 160.00049,0.39111 52,-0.04 104,-0.01 156,0 8.49,0.03 16.48924,0.32905 24.71924,-2.23095 11.82,-3.99 22.36019,-11.44955 28.45019,-22.53955 4.56,-7.8 6.12959,-16.47039 6.32959,-25.40039 0.14,-8.57 0.1409,-17.14973 -0.0791,-25.71973 -0.35,-9.82 -1.75984,-19.30035 -6.33984,-28.11035 -3.09,-6.47 -7.9203,-11.04916 -13.0503,-15.88916 6,-4.88 11.2801,-10.30063 14.6001,-17.39063 4.7,-9.94 6.39914,-21.93035 3.36914,-32.61035 -3.27,-12.99 -12.2393,-23.50974 -23.2793,-30.73974 -8.52,-5.17 -17.9505,-8.51016 -27.7705,-10.16016 13.49,-10.29 24.61025,-23.76918 32.26025,-38.90918 6.24,-13.1 10.55975,-27.54082 11.23975,-42.09082 2.28,-29.07 -9.64016,-58.08992 -29.66016,-78.91992 -21.36,-22.59 -52.72932,-35.16012 -83.79932,-33.12012 -11.37,1.01 -22.61062,3.25979 -33.14062,7.77979 -21.09,8.08 -38.88029,24.26994 -50.55029,43.43994 -6.56,10.18 -10.92907,21.08019 -15.53907,32.20019 -6.13,-13.15 -13.77062,-25.40013 -21.89062,-37.39013 -13.63,-19.20001 -29.08973,-36.64977 -45.21973,-53.75977 -8.14,-8.19 -16.50974,-16.26004 -25.48974,-23.54004 -3.01,-2.23 -5.74077,-4.6899 -9.78077,-3.3999 -5.7,1.52 -8.41992,9.24105 -4.66992,13.83105 4.17,5 10.11104,8.66996 14.81104,13.20996 4.92,4.75 9.94883,9.43903 14.54883,14.49903 10.37,11.43 20.51084,22.79058 29.86084,35.10058 12.04,15.61 23.26023,31.40028 31.74023,49.28028 1.39,2.99 2.84912,5.93963 4.34912,8.86963 -6.41,3.81 -13.76904,4.44953 -21.01904,3.26953 1.45,-3.97 3.04883,-7.45983 2.54883,-11.81983 -0.57,-7.39 -6.17922,-13.98025 -11.44922,-18.76025 C 593.2401,433.35963 578.7,421.54 564,410.02 c -2.88,-2.21 -6.23023,-4.94039 -9.99023,-5.15039 -5.32,-0.42 -10.35004,5.52094 -8.54004,10.71094 1.11,3.95 4.97072,6.49923 7.99072,8.96923 7.16,5.8 14.11885,11.8504 21.06885,17.9004 6.23,5.32 12.82082,10.47919 18.84082,16.17919 2.16,2.11 4.40937,4.4401 5.85937,7.1001 1.03,1.86 0.84024,4.46053 0.99024,6.54053 -2.21,-0.57 -4.38977,-1.14022 -6.50977,-1.97022 -9.93,-4.18 -19.75014,-8.54009 -29.14014,-13.85009 -13.01,-6.9 -23.97023,-16.32026 -33.99023,-27.01026 -12.42,-12.86 -22.94018,-27.78912 -31.68018,-43.34912 -9.67,-17.57 -18.16984,-35.8199 -27.33984,-53.6499 -9.66,-18.54 -18.69955,-37.35994 -27.78955,-56.18994 -8.63,-16.82 -16.03074,-34.17002 -23.51074,-51.52002 -1.59,-3.51 -3.30869,-7.39014 -7.15869,-8.89014 -1.2925,-0.52 -2.70268,-0.70463 -4.09424,-0.59619 z m 393.90527,367.42969 c 6.83266,-0.0518 13.75029,1.22572 20.26904,3.11572 9.02,2.89 17.86993,7.71988 23.41993,15.62988 4.92,6.83 6.16992,15.53092 4.66992,23.69092 -1.62,8.49 -7.42049,16.20895 -15.25049,19.91895 -4.59,2.15 -10.05051,1.93002 -15.02051,2.02002 -55.67,-0.02 -111.33951,0 -166.99951,0 -7.03,0.03 -13.84973,-1.2093 -19.71973,-5.2793 -7.18,-4.63 -11.31086,-11.78049 -13.88086,-19.75049 3.92,-5.91 7.84006,-11.45006 10.56006,-18.06006 1.45,-3.29 2.33049,-6.87883 4.00049,-10.04883 0.71,-1.49 2.98039,-1.9908 4.40039,-2.5708 7.93,-2.45 15.70914,-5.28978 23.61914,-7.77978 10.34,9.03 22.62082,15.44928 36.09082,18.25928 14.46,3.48 29.4299,3.35121 43.8999,-0.009 13.62,-2.4 26.13997,-7.57086 38.70997,-13.13086 5.96,-2.41 11.81054,-5.54039 18.31054,-5.90039 0.97125,-0.0638 1.94481,-0.0981 2.9209,-0.10547 z m -197.43164,51.2666 c 2.27,5.13 4.84945,9.01889 8.68945,13.10889 -11.61,-0.12 -23.23984,0.28084 -34.83984,-0.13916 3.53,-1.29 7.17986,-2.45973 10.60986,-3.96973 5.41,-2.31 10.42053,-5.93 15.54053,-9 z" />
</svg>
