<?xml version="1.0" encoding="UTF-8" standalone="no"?>
<svg
   version="1.1"
   viewBox="0 0 1024 1024"
   width="1024pt"
   height="1024pt"
   id="svg7"
   sodipodi:docname="massage-head-small-icon-homepage-transparent.svg"
   xmlns:inkscape="http://www.inkscape.org/namespaces/inkscape"
   xmlns:sodipodi="http://sodipodi.sourceforge.net/DTD/sodipodi-0.dtd"
   xmlns="http://www.w3.org/2000/svg"
   xmlns:svg="http://www.w3.org/2000/svg">
  <defs
     id="defs7" />
  <sodipodi:namedview
     id="namedview7"
     pagecolor="#ffffff"
     bordercolor="#000000"
     borderopacity="0.25"
     inkscape:showpageshadow="2"
     inkscape:pageopacity="0.0"
     inkscape:pagecheckerboard="0"
     inkscape:deskcolor="#d1d1d1"
     inkscape:document-units="pt">
    <inkscape:page
       x="0"
       y="0"
       width="1024"
       height="1024"
       id="page2"
       margin="0"
       bleed="0" />
  </sodipodi:namedview>
  <path
     id="path2"
             fill="#e7dfbd"
     d="m 830.3042,121.15869 c -2.02547,-0.19922 -4.13619,0.44356 -6.03369,1.08106 -15.43,6 -31.09039,11.3006 -46.40039,17.6206 -10.71,3.88 -21.36073,7.91981 -31.99073,12.04981 -7.43,2.93 -15.10945,5.28916 -22.93945,6.88916 -9.07,1.82 -17.92994,0.46002 -26.93994,-0.97998 -16.11,-2.78 -31.9393,-6.72995 -48.0293,-9.68995 -15.6,-3.35 -31.27072,-6.29904 -46.99072,-9.01904 -11.42,-1.97 -23.36977,-4.71967 -35.00977,-3.90967 -8.04,0.54 -15.29093,4.21909 -22.71093,7.05909 -15.01,6.24 -30.29944,12.02009 -44.91944,19.10009 -7.7,3.71 -15.6498,6.86018 -23.2998,10.68018 -7.91,3.68 -15.86949,7.59 -20.97949,15 -3.5,5.23 -3.83008,10.79035 -4.33008,16.86035 -12.13,3.47 -23.88029,7.57951 -34.80029,13.99951 -12.3,7.37 -24.03045,15.86057 -35.21045,24.83057 -12.01,10.21 -23.97934,19.77016 -34.06934,31.91016 -3.26,3.94999 -6.00988,8.12007 -6.62988,13.33007 -0.49,3.93 0.74914,7.30926 1.86914,10.98926 -11.05,11.45 -18.75018,25.3107 -23.43018,40.4707 -4.67,13.26 -5.079,26.90938 -8.729,40.35938 -1.44,5.33 -3.83067,10.35976 -7.18067,14.75976 -7.46,9.8 -17.48052,18.12045 -26.79052,26.21045 -6.56,5.65 -13.24985,11.45971 -16.08985,19.94971 -1.8,5.42 -0.43963,11.11022 3.13037,15.47022 5,6.19 12.1401,8.36943 18.3501,12.66943 1.52,1.36 3.99977,2.64977 2.75977,5.00977 -2.62,6.39999 -7.31979,10.66037 -7.77979,18.13037 -0.7,5.75 1.96026,9.97961 5.26026,14.34961 -2.73,3.95 -5.50028,7.34021 -5.03028,12.47021 0.71,7.93 5.85061,12.03047 9.37061,18.48047 1.9,3.3 0.29885,6.44975 -0.68115,9.73975 -2.22,6.32 -4.07942,12.51976 -2.39942,19.25976 2.46,8.79 9.3408,15.83025 17.5708,19.51025 11.02,5.42 22.70979,5.98954 34.77979,6.26954 12.67,-0.15 25.31951,-2.17989 37.99951,-2.12989 5.94,0.13 12.95037,0.73088 18.13037,3.90088 4.76,2.94 7.14891,7.93947 9.12891,12.95947 4.94,13.08 7.42138,27.27995 8.42138,41.18995 0.91,13.29 -1.8508,26.44086 -7.0708,38.63086 -6.9,14.97 -19.04,27.81947 -30,39.95947 -10.95,11.81 -21.21978,24.19972 -31.02978,36.96972 -13.83,17.13 -26.1199,35.54012 -37.8999,54.12012 -6.66,10.11 -11.88979,20.7702 -17.52979,31.4502 -2.23,4.47 -4.90072,9.29 -5.74072,14.25 -0.54,3.81 2.75058,7.20955 6.60058,6.78955 4.87,0.12 6.4393,-5.41944 8.2793,-8.91944 5.86,-13.8 13.96102,-26.20035 21.04102,-39.36035 8.33,2.46 16.46006,5.52971 24.81006,7.94971 8.96,2.57 17.7588,5.60066 26.7788,7.93066 -3.56,6.91 -6.7288,14.00039 -10.2788,20.90039 -1.22001,2.52 -2.76028,5.49936 -2.78028,8.33936 0.51,3.24 3.41947,6.40971 6.95947,5.69971 3.91,-0.56 5.83975,-4.20963 7.48975,-7.36963 6.39,-13.59 12.77033,-27.17992 19.34033,-40.66992 11.72,-25.03 25.07053,-50.98073 42.54053,-72.49073 14.73,-17.28 31.54932,-32.02964 52.29932,-41.63964 14.52,-6.37 29.80072,-9.61999 45.49072,-11.47999 4.64,-0.53 9.33996,-0.64007 13.95996,-1.33007 1.98,-0.35 4.03967,-0.79942 5.40967,-2.39942 2.31,-2.51 1.52006,-6.69095 -0.68994,-8.98095 -1.99,-1.88 -5.09063,-1.86954 -7.64063,-1.76954 -23.56,1.51 -47.94924,6.37998 -68.96924,17.47998 -11.1,5.49 -21.29968,13.2703 -30.67968,21.3003 -13.78,12.69 -25.93055,27.37924 -35.56055,43.46924 -12.06,19.06 -21.44955,39.1905 -31.53955,59.2705 -9.44,-4 -19.0703,-6.38957 -28.8003,-9.55957 -6.65,-2.19 -13.32015,-4.35019 -19.91015,-6.70019 7.31,-11.03 14.8406,-21.85037 22.8706,-32.38037 11.59,-16.41 24.99885,-30.7102 38.31885,-45.7002 10.13,-11.5 19.84987,-22.22988 27.10987,-35.87988 8.76,-16.26 11.22117,-35.65938 9.45117,-53.85938 -0.53,-8.25 -1.99992,-16.35964 -3.91992,-24.38964 -1.97,-8.24 -4.35127,-17.07047 -8.53125,-24.48047 -3.88,-7.08 -10.99901,-11.86973 -18.47901,-14.46973 -7.15,-2.29 -14.94039,-2.91113 -22.40039,-2.41113 -14.84,0.99 -29.19047,3.36142 -43.98047,1.96142 -7.31,-0.52 -14.54892,-2.70009 -20.89892,-6.35009 -3.62,-2.17 -7.29075,-5.62004 -7.76075,-10.04004 -0.63,-7.9 5.52022,-16.08084 4.97022,-23.86084 -0.56,-6.5 -6.28024,-11.55028 -9.24024,-17.03028 -1.17,-1.86 -0.58931,-4.22933 -0.54931,-6.31933 5.72,0.98 11.27984,2.45029 16.83984,4.05029 3.2,0.78 7.26906,1.85025 10.28906,0.0103 2.74,-1.58 3.68993,-4.76011 2.41993,-7.62011 -1.05,-2.62 -3.39862,-3.44989 -5.82862,-4.37989 -6.55,-2.24 -14.30025,-4.03068 -20.26025,-7.70068 -2.47,-1.6 -4.69098,-3.77023 -4.25098,-6.99023 0.93,-4.91 5.56114,-9.04987 7.66114,-13.60987 2.59,-4.98 2.57904,-11.10004 -1.48096,-15.29004 -7.28,-7.29 -17.55899,-9.36937 -24.70899,-17.10937 1.81,-3.68 3.81922,-7.10057 6.94922,-9.83057 11.44,-10.59 23.3601,-19.30037 33.3501,-31.63037 3.67,-4.63 6.76932,-9.66023 8.79932,-15.24023 6.14,-16.45 5.80131,-33.97991 12.34131,-50.64991 4.69,-12.98 12.47894,-24.37964 22.16894,-34.13964 9.06,5.89 18.23004,11.19017 26.54004,18.18017 12.51,10.35 24.79035,21.23035 35.61035,33.36035 22.41,23.77 41.97938,50.84916 59.85938,78.13916 7.3,11.17 14.27101,22.55004 21.04101,34.04004 0.93,1.87 2.59998,4.26112 1.72998,6.39112 -1.75,5.26 -4.91041,10.26005 -8.67041,14.31005 -2.32,2.36 -5.40013,5.15924 -8.89013,5.21924 -4.36,0.1 -8.70909,-2.89957 -13.05909,-3.55957 -4.6,0.65 -6.58076,6.15998 -4.53076,9.97998 0.87,1.45 2.14027,2.54901 3.53027,3.47901 7.4,4.68 17.16026,5.3107 24.76026,0.7207 6.32,-3.84 11.12959,-10.39033 15.32959,-16.34033 3.76,8.67 8.28008,16.94972 11.83008,25.71972 6.51,15.08 12.59972,30.32 18.21972,45.75 1.57,4.55 4.16059,9.21059 3.60059,14.10059 -0.51,5.4 -1.4402,10.59004 -0.7002,16.04004 2,16.87 8.57961,32.52986 16.59961,47.35986 4.59,9.18 10.40063,17.45033 15.89063,26.09033 4.79,7.47 10.1991,14.51018 15.0791,21.93018 5.67,8.72 11.85072,16.91926 16.99072,25.98926 7.32,12.91 14.63951,26.64099 19.24951,40.77099 9,25.68 12.40067,53.75887 13.18067,80.83887 0.05,8 0.019,16 0.019,24 0.02,4.31 -0.30906,8.741 0.21094,13.021 0.3,4.66 6.76912,6.62955 10.34912,4.53955 2.48,-1.78 2.65078,-4.73955 2.80078,-7.53955 -0.17,-22.46 -0.0611,-44.65979 -2.58105,-67.02979 -1.83,-16.7 -5.09994,-33.40033 -10.43994,-49.34033 -7.84001,-23.8 -19.96875,-45.29027 -34.21875,-65.78027 -8.39,-12.91 -17.70999,-25.11026 -25.72999,-38.26026 -10.72,-16.9 -21.34132,-36.67996 -24.11132,-56.70996 -0.53,-4.84 -1.05885,-9.92961 3.68115,-12.84961 6.87,-4.05 14.53881,-6.62025 21.52881,-10.51025 18.44,-9.06 36.08033,-17.89045 52.34033,-30.71045 8.21,-6.8 16.16049,-13.81977 22.75049,-22.25977 12.44,-14.39 22.23929,-31.07933 26.27929,-49.81933 23.14,-3.05 45.47034,-10.62074 65.84034,-22.01074 11.43,-5.91 22.27031,-12.1894 34.57031,-15.3794 10.59,-2.65 21.81996,-3.41015 32.70996,-3.41015 9.68,-0.06 19.31951,-0.85063 28.99951,-0.89063 9.36,-0.02 18.64049,-1.11978 28.00049,-1.02978 3.11,-0.15 7.52998,0.15992 9.97998,-2.08008 3.71,-3.04 2.22063,-10.11903 -2.33935,-11.49903 -1.79,-0.51 -3.78112,-0.55007 -5.64112,-0.58007 -20.34,0.47 -40.65902,1.8091 -60.99902,2.3291 -13.24,0.89 -25.98053,1.01078 -38.79053,5.05078 -8.12,2.43 -15.79043,6.8898 -23.44043,10.5498 -14.16,7.77 -29.16017,15.5891 -44.66015,20.3291 -10.81001,3 -21.90987,5.20102 -33.10987,6.04102 -9.98,0.9 -19.98,1.5493 -30,1.5293 -16.9,-0.05 -34.12974,-0.14899 -50.98974,-1.45899 -12.41,-0.78 -25.05991,-2.00002 -37.14991,-5.02002 -3.03,-0.91 -6.72039,-1.82047 -8.15039,-4.98047 -1,-1.94 -0.25974,-3.97046 0.76026,-5.73046 0.85,-2.02 3.70074,-1.62036 5.51074,-1.86036 10.66,-0.1 21.34002,1.40034 32.02002,1.34034 16.67,0.03 33.33976,0.10027 50.00976,-0.21973 3.36,-0.19 8.43004,-0.20051 10.79004,-3.02051 2.8,-3.5 0.36037,-8.70972 -3.61963,-9.96972 -2.78,-0.77 -5.96103,-0.44985 -8.81103,-0.33985 -12.35,0.91 -24.89963,0.54963 -37.36963,0.61963 -9.36,0.07 -18.65049,-0.78998 -28.00049,-0.97998 -10.16,-0.16 -20.35945,-1.34959 -30.43945,-2.57959 -5.88,-0.96 -12.25067,-1.84943 -17.68067,-4.41943 -3.14,-1.45 -4.73937,-5.62032 -2.10937,-8.32032 2.3,-1.88 6.39998,-1.64054 9.22998,-1.81054 19.36,0.05 38.58023,1.57968 57.99023,0.67968 10.99,-0.63 21.9995,-0.50982 32.9795,-1.31982 6.59,-0.56 13.73013,0.42055 20.14013,-1.18945 5.45,-1.61 5.10045,-10.40049 -0.0396,-12.25049 -3.46,-0.97 -7.50103,-0.32922 -11.06103,-0.19922 -23.65,1.56 -47.31977,1.77891 -71.00977,1.62891 -12.36,-0.38 -24.64998,0.0613 -36.97998,-0.92871 -5.69,-0.48 -12.00973,-0.26002 -17.46973,-2.02002 -2.23,-0.83 -4.32945,-2.54995 -3.43945,-5.18995 2.04,-5.67 8.32006,-6.80011 13.56006,-7.62011 13.32,-1.5 26.93887,-1.38082 40.33887,-2.34082 24,-0.52 48.00121,-2.05012 71.99121,-3.12012 3.02,-0.27 7.23004,-0.17982 9.29004,-2.81982 3.01,-3.42 0.39927,-10.13047 -4.24073,-10.23047 -7.64,-0.48 -15.39931,0.5314 -23.04931,0.6914 -29.7,0.98 -59.31098,2.08991 -89.00098,3.39991 -2.83,0.06 -5.92971,0.33964 -8.69971,-0.36036 -2.8,-1.61 -4.60994,-5.36992 -2.93994,-8.41992 2.11,-4.13 6.64991,-6.00035 10.89991,-7.11035 6.44,-1.58 13.03056,-2.61059 19.58056,-3.60059 24.6,-3.91 49.45039,-6.28875 74.15039,-9.46875 15.62,-2.38 31.33856,-4.13031 47.01856,-6.07031 2.66,-0.38 5.66103,-0.78027 8.06103,-2.03027 3.81,-1.96 4.40924,-8.4694 0.71924,-10.8794 -2.38,-1.82 -4.98883,-1.47123 -7.79883,-1.26123 -6.95,0.73 -14.00121,2.07121 -20.99121,2.24121 -8.79,0.12 -17.15931,-2.89058 -25.29931,-5.85058 -6.94,-2.58 -13.3401,-5.27945 -17.6001,-11.68945 18.98,0.26 37.96039,1.12929 56.90039,2.27929 13.04,0.47 26.17008,2.06006 38.83008,5.31006 14.83,3.91 27.24898,11.04002 40.45898,18.52002 10.04,5.78 20.34981,12.99949 31.54981,16.47949 7.98,2.52 15.90037,2.30026 24.13037,1.51026 7.35,-0.77 14.66048,-1.74979 22.00048,-2.52979 21.79,-2.76 43.62917,-4.68973 65.38917,-7.71973 2.58,-0.55 6.15056,-1.01957 7.58056,-3.55957 1.99,-3.15 0.80942,-7.61123 -2.33056,-9.51123 -1.99,-0.8 -4.50938,-0.53894 -6.60938,-0.41894 -5.68,0.55 -11.31047,1.44951 -16.98047,1.99951 -18.37,1.8 -36.66902,4.2401 -54.99902,6.3501 -9.38,1.08 -19.63053,3.03035 -29.04053,1.86035 -11.51,-1.6 -20.18947,-8.68047 -30.20947,-13.98047 -14.49,-7.83 -28.90053,-16.74017 -44.79053,-21.18017 -4.51,-1.4 -9.18947,-2.13047 -13.70947,-3.48047 -2.74,-0.77 -4.1511,-2.90926 -5.8711,-4.98926 -5.35,-6.96 -10.94988,-13.69971 -17.12988,-19.94971 18.32,2.2 38.8801,3.11024 56.6001,-2.75976 11.81,-3.65 22.11984,-9.72086 33.33984,-14.63086 11.62,-4.99 24.67006,-7.55944 36.81006,-11.16944 19.94,-5.38 39.78002,-11.10957 59.77002,-16.30957 3.22,-0.98 7.21086,-1.87056 8.63086,-5.33056 1.35,-3.11 0.14939,-6.43 -2.62061,-8.25 -2.14,-1.52 -4.61927,-0.96047 -7.00927,-0.48047 -19.36,5.26 -38.67119,10.6506 -57.97119,16.1206 -10.75,2.85 -21.48944,5.73034 -32.16944,8.84034 -16,4.8 -29.87058,14.38943 -45.60058,19.41943 -9.17,3 -18.48883,3.33031 -28.04883,3.07031 -14,-0.57 -28.14024,-1.73012 -40.74024,-8.37012 -17.05,-8.99 -32.89066,-20.06058 -49.93066,-29.10058 -7.9,-4.07 -16.32908,-9.18901 -25.05908,-10.97901 -11.77,-2.47 -23.35981,-2.53121 -35.29981,-2.99121 -14.35,-0.96 -28.59119,-0.56013 -42.97119,-0.64013 -7.15,-0.06 -14.27894,0.37095 -21.41894,0.73095 0.45,-1.99 0.43009,-4.76959 1.85009,-6.32959 3.08,-3.41 7.27946,-5.29029 11.68946,-6.30029 6.7,-1.52 13.95052,-1.98055 20.79052,-2.56055 21.68,-1.78 43.35887,-1.85043 65.08887,-1.69043 13.15,0.04 26.32039,6.34041 38.90039,10.17041 11.41,3.67 23.29938,6.11034 35.10938,8.09034 4.85,0.68 10.0509,1.40918 14.9209,0.65918 5.36,-1.14 5.64976,-10.48897 0.50976,-12.18897 C 649.18994,189.47037 645.41,189.35 642,189 c -19.41,-1.85 -37.2902,-7.85004 -55.4502,-14.54004 -15.15,-5.76 -31.68029,-4.39053 -47.55029,-4.29053 -9.93,0.07 -19.78894,1.54018 -29.66894,0.93018 3.55,-1.92 7.1292,-3.47959 10.9292,-4.82959 13.07,-4.75 25.77089,-10.57057 38.92089,-15.08057 6.48,-2.28 13.21901,-2.54986 19.97901,-1.60986 30.4,4.14 60.98074,10.92033 91.01074,17.09033 11.27,2.39 22.3398,4.87069 33.7998,6.20069 7.91,0.88 16.2095,0.819 23.9795,-1.021 8.62,-2.03 16.53101,-5.11912 24.79101,-8.09912 19.52,-6.9 38.67989,-14.81108 58.14991,-21.85108 5.55,-2.05 11.02884,-4.27914 16.56884,-6.36914 2.58,-1.07 5.88119,-2.18963 7.72119,-4.36963 2.06,-3.04 0.59987,-8.12072 -2.89013,-9.49072 -0.645,-0.285 -1.31117,-0.44482 -1.98633,-0.51123 z m -336.30469,92.74072 c 13,0.06 26.02,0.11108 39,0.85108 9.06,0.38 19.06088,0.19935 27.90088,2.33935 9.24,2.32 18.26984,7.82016 26.58984,12.41016 14.04,7.74 27.30979,16.57072 40.77979,25.24072 5.68,3.69 10.80019,8.57881 15.70019,13.27881 5.75,5.62 10.63987,12.15979 15.85987,18.27979 -5.96,-0.12 -11.87983,-0.66883 -17.81983,-1.04883 -17.34,-0.67 -34.65953,-1.42108 -52.01953,-1.60108 -3.78,0.18 -7.39019,0.17065 -9.70019,3.66065 -3.51,5.32 -1.57104,12.74021 1.68896,17.72021 4.67,7.19 11.79063,10.45971 18.89063,14.69971 -26.49,3 -52.96033,6.11023 -79.34033,9.99023 -5.86,-10.55 -13.00977,-20.25048 -20.75977,-29.50048 -10.92,-12.5 -22.34023,-24.31 -35.49023,-34.5 -15.23,-12.84 -31.76959,-23.26981 -49.07959,-33.04981 8.37,-6.11 18.62044,-9.97978 28.46044,-13.02978 16.23,-4.98 32.47887,-5.74073 49.33887,-5.74073 z m -90.29004,27.53028 c 7.95,4.15 15.88998,8.62039 23.47998,13.40039 14.4,8.95 27.53059,19.56963 40.35059,30.61963 15.63,14.17 29.76947,28.64986 39.95947,47.35986 -4.72,2.7 -9.61982,5.29061 -13.31982,9.37061 -3.85,4.2 -5.6502,10.27011 -4.4502,15.87011 0.7,3.24 2.38043,6.04994 3.94043,8.93994 -3.8,3 -7.41963,5.57934 -9.61963,10.06934 -2.56,5.36 -3.65097,11.56107 0.24903,16.60107 4.46,6.05 10.79086,7.55952 17.63086,9.49952 -0.25,2.3 -0.55059,4.55986 -0.60059,6.85986 -0.4,5.46 3.30107,10.99957 7.60107,14.05957 6.81,4.67 15.66895,6.36018 23.66895,7.68018 -1.31,4.52 -2.44955,8.70058 -0.78955,13.35058 2.06,6.38 7.24932,10.4193 13.29932,12.7793 7.75,2.95 16.51013,3.76107 24.64013,5.35107 3.36,27.2 6.84022,55.81959 0.47022,82.82959 -1,4.07 -1.88035,8.99928 -5.61035,11.50928 -3.85001,2.62 -8.34977,4.37047 -12.50977,6.48047 -6.26,-21.49 -15.12994,-41.6907 -23.93994,-62.2207 -10.45,-23.07 -22.46953,-45.48975 -36.26953,-66.73975 -19.89,-31.68 -41.27998,-61.74027 -66.97998,-89.03027 -8.38,-9.65 -17.74086,-18.2594 -27.38086,-26.6294 -9.72,-8.19 -19.85905,-16.67949 -30.76905,-23.22949 -3.69,-2.29 -7.8399,-3.46998 -11.6499,-5.47998 -1.61,-0.78 -2.29017,-2.63078 -1.68017,-4.30078 1.33,-3.44 4.48029,-6.3902 7.05029,-8.9502 7.5,-7.16 15.19887,-14.14988 23.08887,-20.87988 6.5,-5.25 12.97013,-10.84992 20.14013,-15.16992 z M 582.99023,463.8501 c 8,0.46 15.99,1.09937 24,1.35937 19.69,1.28 39.62032,0.84 59.32032,0 -2.51,7.44 -5.63002,14.74104 -9.52002,21.56104 -8.55,13.97 -19.57071,26.4491 -32.22071,36.8291 -13.19,10.8 -27.53021,18.71021 -42.47021,26.72021 3.48,-11.08 3.87986,-22.07982 4.60986,-33.56982 0.37,-17.74 -1.08924,-35.3599 -3.71924,-52.8999 z" />
  <path
     d="m 344.92,388.94 c 3.67,2.39 5.82,7.04 9.87,9.3 6.28,3.63 14.46,0.75 21.12,1.82 4.59,1.48 5.57,7.92 2.3,11.15 -2.09,1.95 -5.42,2.6 -8.17,2.87 -8.29,0.69 -16.87,-0.5 -23.85,-5.29 -4.06,-2.87 -8.31,-7.69 -8.77,-12.82 -0.32,-4.07 3.23,-8.4 7.5,-7.03 z"
     fill="#e7dfbd"
     id="path5" />
  <path
     d="m 545.28,785.19 c -1.56,4.32 -4.51,8.27 -6.82,12.24 -12.68,21.03 -25.05,42.24 -37.68,63.3 -2.08,3.42 -3.9,7.48 -6.75,10.32 -2.83,2.65 -7.81,2.04 -9.44,-1.64 -1.89,-3.95 0.47,-8.02 2.34,-11.46 13.45,-23.09 27.39,-45.93 41.24,-68.79 2.24,-3.51 4.38,-7.69 7.57,-10.41 3.82,-3.33 11.95,1.29 9.54,6.44 z"
     fill="#e7dfbd"
     id="path7" />
</svg>
