<?xml version="1.0" encoding="UTF-8" standalone="no"?>
<svg
   version="1.1"
   viewBox="0 0 548.83704 554.66125"
   width="548.83704pt"
   height="554.66125pt"
   id="svg3"
   sodipodi:docname="quote.svg"
   inkscape:version="1.4 (e7c3feb1, 2024-10-09)"
   xmlns:inkscape="http://www.inkscape.org/namespaces/inkscape"
   xmlns:sodipodi="http://sodipodi.sourceforge.net/DTD/sodipodi-0.dtd"
   xmlns="http://www.w3.org/2000/svg"
   xmlns:svg="http://www.w3.org/2000/svg">
  <defs
     id="defs3" />
  <sodipodi:namedview
     id="namedview3"
     pagecolor="#ffffff"
     bordercolor="#000000"
     borderopacity="0.25"
     inkscape:showpageshadow="2"
     inkscape:pageopacity="0.0"
     inkscape:pagecheckerboard="0"
     inkscape:deskcolor="#d1d1d1"
     inkscape:document-units="pt"
     inkscape:zoom="0.096427118"
     inkscape:cx="383.70949"
     inkscape:cy="-41.482107"
     inkscape:window-width="1104"
     inkscape:window-height="603"
     inkscape:window-x="0"
     inkscape:window-y="38"
     inkscape:window-maximized="0"
     inkscape:current-layer="svg3">
    <inkscape:page
       x="0"
       y="0"
       width="548.83704"
       height="554.66125"
       id="page2"
       margin="0"
       bleed="0" />
  </sodipodi:namedview>
  <path
     d="M 231.21704,2.3118602e-5 C 227.62704,5.7900231 224.81704,12.060024 221.56704,18.050024 c -29.51,58.84 -58.43,120.309996 -78.78,182.969996 -6.16,19.76 -12.41,40.85 -14.17,61.5 -1.07,5.36 -0.09,10.45 0.68,15.76 1.69,10.31 7.21,20.03 14.89,27.08 6.11,5.98 13.27,9.48 20.88,13.1 8.89,4.04 17.89,7.97 26.54,12.48 15.62,8.5 29.88,20.2 40.27,34.71 10.27,13.66 17.02,30.07 20.08,46.83 6.02,32.07 -1.52,66.13 -20.08,92.92 -11.92,16.6 -27.79,30.21 -46.56,38.46 -17.06,7.72 -35.62,11.02 -54.28,10.79 -23.43,-0.18 -46.480005,-6.13 -66.250005,-18.9 -16.78,-10.83 -30.75,-26.1 -40.59,-43.44 -9.24,-16.48 -15.4000003,-34.34 -19.2300003,-52.8 -5.55000007,-26.09 -6,-53.53 -3.55,-80.01 4.42,-40.92 14.8200003,-81.28 29.9400003,-119.54 8.85,-21.27 18.49,-42.3 29.68,-62.45 8.7,-15.2 17.41,-30.16 27.37,-44.6 7.27,-10.81 14.860005,-21.84 23.270005,-31.79 29.76,-37.329996 65.94,-70.629996 107.24,-94.7799969 4.09,-2.33 7.88,-4.69 12.3,-6.339999981398 z"
     fill="#e7dfbd"
     id="path2" />
  <path
     d="m 526.86704,0.16002312 c -22.62,44.35000088 -44.55,88.47000088 -63.65,134.50999688 -13.82,33.37 -26.2,66.4 -34.47,101.64 -2.31,10.7 -4.3,21.2 -4.49,32.19 0.72,7.38 1.54,14.35 4.56,21.21 3.7,8.14 9.6,14.97 16.74,20.28 6.81,4.97 14.53,8.1 22.35,11.64 13.12,5.51 26,11.88 37.2,20.77 14.02,10.77 25.6,25.08 32.78,41.26 7.53,16.3 10.68,33.97 10.95,51.85 -0.53,28.28 -9.32,56.29 -27.83,78 -13.14,15.54 -30.65,27.4 -49.8,34.2 -14.97,5.41 -31.32,7.28 -47.17,6.84 -14,-0.71 -27.7,-3.11 -40.79,-8.25 -22.88,-8.29 -42.89,-24.5 -56.31,-44.74 -10.74,-16.72 -17.95,-35.96 -22.66,-55.21 -3.69,-17.61 -6.62,-35.81 -6.34,-53.84 -0.24,-14.72 0.18,-29.39 2.06,-44 4.3,-38.31 15.71,-76.41 29.94,-112.15 5.95,-14.37 12.7,-28.41 19.63,-42.32 17.45,-33.77 37.84,-66.6 61.79,-96.179996 17.05,-20.85 35.89,-40.19 56.49,-57.56 18.31,-15.12 37.93,-29.16 59.02,-40.14000088 z"
     fill="#e7dfbd"
     id="path3"
/>
</svg>
