<?xml version="1.0" encoding="UTF-8" standalone="no"?>
<svg
   version="1.1"
   viewBox="0 0 1024 1024"
   width="1024pt"
   height="1024pt"
   id="svg25"
   xmlns="http://www.w3.org/2000/svg"
   xmlns:svg="http://www.w3.org/2000/svg">
  <defs
     id="defs25" />
  <path
     id="path2"
     fill="#e7dfbd"
     d="m 272.13135,157.87207 c -2.17963,0.0777 -4.25069,0.96615 -5.45069,2.8374 -1.45,2.32 -1.52111,5.66032 -1.89111,8.32032 -1.22,13.01 -6.49973,25.63003 -15.96973,34.79003 -4.17,3.95 -8.99949,7.36026 -14.22949,9.76026 -3.77,1.74 -7.97965,2.48013 -11.63965,4.39013 -4.09,2.13 -5.18093,8.62907 -1.71093,11.78907 2.03,1.74 4.93013,2.63109 7.39013,3.62109 6.22,2.31 12.22039,5.2891 17.15039,9.8291 7.55,6.89 12.88953,16.32047 16.01953,25.98047 2.14,6.59 2.49967,13.33053 3.90967,20.04053 0.77,3.2 2.0803,6.47019 5.5503,7.45019 3.4,0.68 7.93019,-0.74994 8.95019,-4.43994 1.28,-4.85 1.08045,-10.02115 2.21045,-14.93115 2.94,-15.03 10.81916,-30.47977 24.13916,-38.75977 5.51,-3.67 12.30971,-4.65005 17.69971,-8.31005 3.96,-2.7 4.00109,-8.83037 -0.12891,-11.38037 -5.3,-2.98 -11.49068,-3.95932 -16.70068,-7.29932 -13.25,-7.48 -21.29905,-20.7 -24.76905,-35.25 -1.11,-4.24 -1.3205,-8.62012 -2.2705,-12.87012 -0.69375,-3.575 -4.62608,-5.69746 -8.25879,-5.56787 z m 0.5581,35.8374 c 3.71,6.47 7.17061,12.78998 12.37061,18.22998 4.86,5.31 10.63961,9.07119 16.59961,12.97119 -8.48,4.92 -15.65035,11.46995 -21.36035,19.43995 -2.91,4.21 -5.06887,9.14877 -7.33887,13.73877 -5.28,-14.05 -15.55109,-25.67915 -28.37109,-33.36915 7.69,-4.77 15.33072,-9.96011 20.74072,-17.37011 3.21,-4.2 5.15937,-8.88063 7.35937,-13.64063 z" />
  <path
     d="m 449.97,174.95 c 10.57,-0.38 20.44,2.81 29.95,7.12 11.16,5.17 19.98,12.49 30.64,18.41 8.67,4.83 17.48,9.08 27.45,10.31 4.89,0.73 10.08,0.07 14.86,1.27 6.05,2.2 5.74,12.72 -0.88,13.96 -7.75,1.44 -16.3,-0.23 -23.82,-2.22 -17.91,-4.57 -33.54,-16.71 -49.69,-25.29 -7.3,-3.85 -15,-6.74 -23.22,-7.82 -3.35,-0.64 -7.55,-0.65 -10.48,-2.47 -2.8,-2.5 -3.19,-7.58 -1.22,-10.69 1.52,-2.21 3.95,-2.41 6.41,-2.58 z"
     fill="#e7dfbd"
     id="path3" />
  <path
     id="path4"
     fill="#e7dfbd"
     d="m 735.30469,183.3501 c -3.29267,0.15369 -6.70418,2.4014 -7.03418,5.66015 -0.97,6.05 -1.48106,12.07924 -3.33106,17.96924 -4.13,14.78 -12.88966,28.74053 -26.40966,36.54053 -5.41,3.49 -11.68,4.80934 -17.25,7.81934 -4.35,2.23 -4.61944,9.3005 -0.66944,12.0205 4.02,2.92 9.4799,3.78967 13.8999,6.15967 16.37,8.66 27.38018,24.56086 31.68018,42.38086 1.31,4.97 1.61906,10.11961 2.78906,15.09961 0.54,4.5 6.87014,5.86988 10.39014,4.37988 3.47,-1.42 3.64092,-5.59976 4.19092,-8.75976 1.29,-12.33 4.48883,-24.83998 12.29883,-34.72998 6.09999,-7.79 13.99134,-14.89012 23.13134,-18.87012 3.9,-1.84 8.87961,-3.02969 12.09961,-5.92969 2.48,-2.6 3.23953,-8.71062 -0.48047,-10.64062 -4.55,-2.7 -9.77017,-4.14969 -14.43017,-6.67969 -18.81,-9.11 -30.81026,-30.39957 -32.26026,-50.80957 -0.48,-3.81 -0.87,-8.2109 -4.5,-10.4209 -1.14687,-0.89687 -2.61808,-1.25931 -4.11474,-1.18945 z m -0.0147,37.24951 c 4.44,10.03 10.24932,19.30105 18.54932,26.58105 4.77,4.25 10.1407,7.61922 15.7207,10.69922 -7.07,3.61 -13.57069,7.79998 -18.95068,13.72998 -6.74,6.48 -11.18995,14.42086 -14.93995,22.88086 -7.28,-15.51 -18.02007,-29.02127 -33.58007,-36.80127 8.3,-5.18 16.24101,-10.4591 22.54101,-18.0791 4.91,-5.65 7.86967,-12.15074 10.65967,-19.01074 z" />
  <path
     d="m 423,231.04 c 11.55,0.23 23.12,2.29 33.58,7.36 10.16,4.59 18.92,10.89 28.35,16.69 6.59,4.02 13.76,7.23 20.94,10.04 13.94,5.49 29.34,7.47 44.25,6.24 2.96,-0.14 6.31,-0.55 9.2,0.26 5.85,1.77 6.1,11.96 0.13,13.77 -3.92,1.2 -8.36,1.17 -12.44,1.31 -24.19,0.75 -48.32,-6.36 -69.07,-18.62 -11.42,-6.6 -21.08,-14.05 -33.84,-18.19 -6.28,-1.98 -12.73,-2.95 -19.3,-3.26 -2.74,-0.17 -5.78,-0.21 -8.38,-1.14 -4.29,-2.09 -5.7,-7.98 -2.7,-11.75 2.07,-2.76 6.19,-2.62 9.28,-2.71 z"
     fill="#e7dfbd"
     id="path7" />
  <path
     d="m 344.37,322.39 c 3.51,-1.11 6.85,0.41 8.61,3.58 2.33,4.14 5.19,9.19 5.1,14.05 -0.26,4.89 -5.7,6.69 -9.8,5.69 -2.45,-0.87 -3.94,-3.72 -5.1,-5.88 -1.65,-3.42 -3.4,-7.2 -3.79,-11 -0.26,-3.06 2.31,-5.49 4.98,-6.44 z"
     fill="#e7dfbd"
     id="path9" />
  <path
     d="m 159.1,334.31 c 10.37,-1.18 21.2,0.75 30.76,4.87 7.79,3.52 15.04,8.93 21.68,14.26 10.12,7.77 20.63,14.46 33.45,16.62 5.95,1.28 11.95,0.37 17.89,1.23 4.14,0.56 6.36,5.2 5.43,8.98 -1.26,3.59 -4.56,5.52 -8.26,5.68 -10.81,0.68 -22.16,-1.98 -32.25,-5.75 -11.74,-4.69 -22.24,-13.51 -32.57,-20.42 -6.4,-4.24 -12.78,-7.9 -20.4,-9.44 -5.11,-1.1 -10.38,-0.83 -15.47,-1.85 -4,-0.78 -6.6,-5.57 -5.31,-9.38 0.85,-2.41 2.29,-4.54 5.05,-4.8 z"
     fill="#e7dfbd"
     id="path10" />
  <path
     d="m 831.65,345.31 c 4.16,2.52 4.82,10.09 0.24,12.53 -3.93,1.76 -8.49,2.07 -12.58,3.49 -7.15,2.39 -13.76,6.63 -19.52,11.45 -9.22,8.26 -17.74,17.95 -27.82,25.17 -9.11,6.59 -19.61,10.41 -30.58,12.54 -4.32,0.72 -8.64,0.22 -11.09,-3.84 -2.55,-3.93 -0.38,-8.88 3.67,-10.66 3.96,-1.47 8.48,-1.53 12.59,-2.51 9.46,-2.2 18.17,-7.03 25.18,-13.73 6.77,-6.5 13.13,-13.61 20.32,-19.65 8.49,-6.91 18.6,-11.89 29.06,-15.02 3.25,-0.85 7.58,-1.89 10.53,0.23 z"
     fill="#e7dfbd"
     id="path12" />
  <path
     d="m 153.98,389.73 c 12.62,1.08 23.14,6.91 33.42,13.86 8.82,5.71 16.65,12.08 26.46,15.56 7.72,2.7 15.96,4.05 24.14,3.96 2.7,0.11 6.15,-0.26 8.44,1.4 2.06,1.34 4.26,3.78 4.29,6.37 -0.28,2.77 -2.17,5.99 -5.02,6.73 -3.71,1.01 -7.91,0.78 -11.71,0.49 -10.11,-0.91 -20.64,-2.91 -29.9,-7.19 -10.01,-4.73 -18.73,-11.49 -27.82,-17.16 -5.71,-3.51 -12.19,-7 -18.82,-8.23 -4.6,-0.88 -9.74,-0.35 -14.15,-1.84 -5.17,-1.52 -5.95,-10.23 -1.82,-13.17 3.6,-1.76 8.58,-1.05 12.49,-0.78 z"
     fill="#e7dfbd"
     id="path13" />
  <path
     d="m 864.53,400.54 c 5.42,2.17 6.21,10.18 1.5,13.48 -4.29,1.67 -9.46,1.13 -13.99,2.17 -10.45,2.05 -20.34,6.47 -28.64,13.17 -10.62,8.02 -19.91,17.72 -31.46,23.57 -13.01,6.65 -27.23,10.83 -41.96,9.01 -4.66,-0.89 -7.33,-6.46 -4.63,-10.55 2.13,-3.86 6.91,-3.25 10.65,-3.61 15.97,-0.12 31.34,-7.22 43.47,-17.31 8.77,-7.35 17.12,-14.97 27.23,-20.74 7.69,-4.42 16.6,-7.07 25.28,-8.72 4,-0.61 8.57,-1.42 12.55,-0.47 z"
     fill="#e7dfbd"
     id="path14" />
  <path
     id="path15"
     fill="#e7dfbd"
     d="m 335.38477,416.76855 c -0.43905,0.0228 -0.87643,0.0829 -1.30518,0.18165 -1.85,0.78 -3.19008,2.44917 -3.58008,4.40918 -0.76,3.8 -0.58898,7.81085 -1.45898,11.63085 -2.74,12.11 -12.41114,22.08959 -24.16114,25.82959 -2.48,0.93 -5.64986,1.64073 -7.60986,3.49073 -2.16,2.51 -1.67959,7.33896 1.17041,9.18896 2.04,1.41 4.60992,2.26088 6.91992,3.15088 10.94,3.66 19.72989,13.33957 22.37989,24.55957 1.09,4.05 1.28027,8.47035 2.78027,12.36035 1.41,3.33 5.95051,4.11994 9.02051,2.93994 2.5,-1.12 3.28896,-3.49019 3.93896,-5.95019 1.23,-5.19 1.57035,-10.10994 4.11035,-14.93994 4.39,-8.47 11.73959,-15.70969 20.57959,-19.42969 2.52,-1.21 5.69987,-2.3607 7.60987,-4.4707 2.26,-2.87 1.15035,-7.64028 -1.88965,-9.53028 -2.52,-1.63 -5.60986,-2.57904 -8.35986,-3.76904 -7.29,-2.91 -13.29977,-9.14068 -17.00977,-15.95068 -3.33,-6.19 -3.55039,-12.80914 -5.90039,-19.11914 -0.9975,-3.07125 -4.16156,-4.74172 -7.23486,-4.58204 z m 2.30566,34.021 c 2.05,2.52 3.80967,5.09084 6.15967,7.36084 3.03,2.91 6.77951,5.30992 10.24951,7.66992 -7.17,4.83 -12.86949,10.26028 -17.22949,17.78028 -3.83,-7.47 -8.86989,-12.79067 -15.62989,-17.68067 3.22,-2.04 6.32961,-3.93033 9.09961,-6.59033 2.8,-2.64 4.88059,-5.63004 7.35059,-8.54004 z" />
  <path
     id="path17"
     fill="#e7dfbd"
     d="m 696.06445,474.66064 c -2.095,0.0788 -4.21463,1.11418 -5.49463,2.90918 -1.69,2.67 -1.97964,6.36041 -2.63964,9.42041 -1.36,8.71 -5.82961,17.61913 -12.84961,23.09913 -4.44,3.53 -9.65069,4.91062 -14.45069,7.64062 -3.85,2.02 -3.93922,8.64004 -0.19922,10.79004 4.01,2.52 8.82885,3.44043 12.81885,6.19043 7.44,5.11 12.26112,13.40996 13.89112,22.20996 0.87,3.76 1.13921,8.41926 3.19921,11.73926 2.63,4.01 9.8302,2.34023 11.2002,-2.00977 1.34,-3.65 1.68996,-7.70998 2.70996,-11.47998 2.14,-8.49 7.57988,-16.18 14.87988,-21 3.76,-2.45 8.60987,-3.20943 12.10987,-5.91943 3.22,-2.78 2.98091,-7.54086 -0.30909,-10.13086 -3.12,-2.05 -6.93046,-3.03934 -10.23046,-4.81934 -7.31,-3.6 -12.5001,-11.2509 -15.3501,-18.6709 -2.2,-5.52 -1.82043,-11.68867 -3.94043,-17.13867 -1.18,-2.03 -3.25022,-2.90883 -5.34522,-2.83008 z m -0.13476,34.10889 c 4.22,5.53 8.49056,10.51113 14.33056,14.41113 -2.8,1.95 -5.5297,3.67891 -7.9497,6.12891 -2.71,2.78 -4.62989,6.10111 -6.62989,9.39111 -3.71,-6.54 -8.58009,-11.62105 -14.60009,-16.08105 3.11,-2 6.32994,-3.95033 8.93994,-6.59033 2.25,-2.26 3.92918,-4.79977 5.90918,-7.25977 z" />
  <path
     id="path8"
     fill="#e7dfbd"
     d="m 513.25488,318.8291 c -16.77324,-0.75918 -33.88398,4.70401 -46.36523,16.04151 -8.63,7.97 -15.40973,17.81982 -18.96973,29.06982 -4.99,15.31 -5.90013,32.1393 -3.64013,48.0293 2.6,18.9 8.97052,37.55996 21.54052,52.20996 1.96,2.48 4.96955,5.53052 5.28955,8.79052 0.15,5.94 -3.44988,10.71022 -8.12988,13.97022 -13.05,9.36 -28.1598,11.30029 -42.7998,18.30029 -12.63,5.87 -25.74081,14.6794 -33.3208,26.6294 -4.7,7.4 -8.16911,15.51941 -9.82911,24.14941 -2.02,9.26 -2.82099,18.60998 -4.02099,27.97998 -3.56,26.83 -5.33998,54.95026 -12.97998,81.01026 -2.69,9.99 -7.01873,19.22027 -11.94873,28.28027 -3.87,-11.99 -9.23067,-23.01043 -15.43067,-33.94043 -14.26,-24.6 -27.42949,-49.87926 -41.22949,-74.73926 -4.16,-7.3 -9.59086,-16.0009 -17.63086,-19.4209 -8.66,-3.92 -20.25971,0.10994 -22.94971,9.68994 -2.28,8.21 -0.0794,18.16006 1.87061,26.31006 2.89,13.18 7.79889,25.03024 12.35889,37.74024 2.92,7.94 6.24093,15.66058 8.46093,23.85058 -4.97,-4.49 -9.45078,-9.39974 -14.05078,-14.23974 -2.35,-2.61 -4.66955,-4.92125 -5.28955,-8.53125 -1.17,-6.58 -1.53953,-13.28993 -2.51953,-19.8999 -1.12,-9.74001 -3.07043,-19.33913 -3.94043,-29.09913 -1.86,-16.11 -3.68984,-32.20093 -6.33984,-48.21093 -1.66,-10.41 -2.80049,-21.93971 -6.25049,-31.94971 -2.68,-7.45 -6.95037,-14.2199 -14.38037,-17.6499 -4.55,-2.21 -9.69953,-0.72002 -14.51953,-1.27002 -2.47,-3.34 -3.92963,-7.31981 -6.61963,-10.54981 -6.31,-8.16 -15.94063,-13.18957 -26.39063,-11.05957 -5.84,1.59 -10.17881,6.77949 -11.02881,12.72949 -0.97,7.2 -0.16062,14.70069 -0.14062,21.95069 1.11,28.35 2.93998,56.64902 3.97998,84.99902 0.15,7.69 0.85053,15.32098 1.29053,23.00098 0.41,6.35 0.59945,12.58006 1.93945,18.81006 1.98,10.31 8.27068,20.13898 14.45068,28.45898 16.31,20.96 33.57918,41.02061 50.90918,61.12061 7.58,9.23 16.57035,18.05939 22.86035,28.12939 2.97,4.8 3.07036,10.02047 2.61036,15.48047 -1.78,16.29 -4.56084,32.44994 -6.61084,48.68994 -0.25,3.48 -1.1192,8.43002 1.8208,11.02002 3.49,2.79 9.92965,1.63024 11.63965,-2.75976 1.26,-3.09 1.56001,-6.64018 2.02001,-9.93018 1.29,-11.11 3.26967,-22.11068 4.65967,-33.20068 1.14,-8.65 2.86082,-16.50901 0.84082,-25.22901 -1.55,-7.24 -5.28029,-13.47029 -10.05029,-19.05029 -12.59,-15.05 -25.58084,-29.76059 -38.11084,-44.85059 -10.21,-12.45 -20.89977,-24.59929 -30.50977,-37.52929 -5.66,-7.82 -10.76943,-15.26991 -11.91943,-25.14991 -2,-16.22 -2.46068,-32.68048 -3.20068,-49.00048 -0.59,-6.33 -0.72987,-12.65928 -0.85987,-19.00928 -1.03,-20.65 -2.19935,-41.33072 -3.08935,-61.99072 -0.29,-4.3 0.10922,-8.44039 0.94922,-12.65039 4.07,1.1 7.77968,1.96003 10.42969,5.54003 4.12,5.62 5.63072,13.50077 6.49072,20.28077 2.58,27 5.13931,53.99045 8.04931,80.96045 1.08,8.58 1.60034,16.62939 5.84034,24.37939 4.41,7.99 11.2207,14.96051 17.9707,21.02051 7.61,7.06 14.81006,14.5092 22.56006,21.4292 11.96,11.27 23.53965,23.21963 35.63965,34.36963 3.2,2.83 8.91968,2.1807 11.17968,-1.5293 1.91,-2.73 0.8702,-5.70934 -0.0498,-8.56934 -6.62,-16.97 -12.14039,-34.3506 -18.65039,-51.3706 -5.37,-14.04 -10.09029,-27.94012 -12.30029,-42.87012 -0.48,-3.16 -0.24924,-6.27971 0.0308,-9.44971 6.47,0.16 8.78031,5.91975 12.07031,10.48975 12.45,20.49 23.00016,42.29986 34.91016,63.10986 3.73,6.61 7.35912,13.27061 11.09912,19.87061 6,11.13 11.01093,23.41019 12.96093,35.95019 1.35,7.95 1.27913,15.9393 1.34913,24.0293 -0.16,22 -0.56032,43.98949 -0.82032,65.97949 -0.01,7 -0.31004,14.11031 0.45996,21.07031 0.34,3.16 1.48096,6.07006 4.48096,7.56006 3.99,1.16 9.06947,-0.77949 9.95947,-5.22949 1.12,-6.08 0.28041,-12.61101 0.42041,-18.79101 13.23,5.97 26.65959,10.67111 40.82959,13.89111 13.9,3.74 27.99075,6.10939 42.26075,7.87939 15.66,2.29 31.37892,3.3495 47.14892,4.4795 15.07,0.22 29.64112,1.59115 44.64112,0.68115 5.77998,-0.37 11.56986,-0.4409 17.35986,-0.6709 28.32,-1.8 56.71965,-4.87967 84.38965,-11.40967 14.14,-2.99 28.88998,-7.36035 41.47998,-14.61035 0.03,6.02 -0.51047,12.21018 0.26953,18.18018 0.67,4.62 6.03047,7.33986 10.23047,5.35986 3.96,-1.86 4.64998,-6.42912 4.72998,-10.34912 -0.19,-25.03 -0.8303,-50.00051 -1.0503,-75.02051 -0.22,-13.79 0.2903,-27.22023 3.3003,-40.74023 2.29,-10.82 7.46049,-21.38967 13.00049,-30.90967 7.2,-12.49 14.49951,-24.92051 21.49951,-37.52051 7.35,-13.01 14.29974,-26.23922 21.73974,-39.19922 2.28,-3.9 4.60043,-8.06012 7.69043,-11.37012 1.58,-1.65 3.54914,-1.92015 5.61914,-2.66015 0.45,3.49 0.85049,6.90039 0.25049,10.40039 -2.05,14.15 -6.54037,28.309 -11.38037,41.729 -5.27,16.22 -11.09933,32.2403 -16.81933,48.3003 -0.93,2.75 -2.12985,5.99089 -1.83985,8.92089 0.87,4.22 5.4702,7.36952 9.7002,5.74952 2.75,-1.17 5.12931,-3.55055 7.29931,-5.56055 14.97,-14.71 29.83073,-29.50955 44.74073,-44.28955 7.55,-7.8 16.56951,-15.22994 22.99951,-23.93994 6.4,-8.91 7.38019,-19.31944 8.20019,-29.91944 2.87,-26.66 5.61041,-53.36072 8.67041,-79.99072 0.96,-7.52 2.64973,-16.46057 8.46973,-21.83057 2.5,-2.52 5.47977,-2.71015 8.75977,-3.41015 0.66,12.05 0.0495,24.21023 -0.71045,36.24023 -0.72,17.35 -1.91979,34.671 -2.52979,52.021 -0.79,8.78 -0.51951,17.59012 -1.24951,26.37012 -0.69,8.91 -0.33092,18.43972 -1.94092,27.21972 -1.57,8.19 -6.31959,16.16008 -10.82959,23.08008 -20.35,29.1 -43.43051,54.63023 -66.77051,81.24023 -6.21,6.99 -11.52955,14.04967 -13.53955,23.40967 -1.95,8.8 0.0595,17.01979 1.24951,25.77979 1.45,11.36 3.45034,22.62972 5.09034,33.96972 0.48,2.96 0.94,6.2495 2.25,8.9795 1.82,4.29 9.08093,3.91105 11.46093,0.33105 1.81,-2.2 1.52893,-4.7409 1.39893,-7.4209 -1.71,-14.9 -4.44889,-29.65978 -6.35889,-44.52978 -0.66,-6.09 -1.39131,-13.07032 1.15869,-18.82032 2.48,-5.85 7.05065,-11.04884 11.16065,-15.81884 17.74,-20.47 35.51939,-40.42035 52.12939,-61.86035 7.5,-9.14 14.44104,-18.52997 20.06104,-28.95997 3.92,-7.39 6.33992,-15.6207 6.91992,-23.9707 0.76,-10.67 1.30016,-21.35002 1.91016,-32.02002 0.27,-16.68 1.95961,-33.31926 2.34961,-49.98926 0.69,-13.67 1.24015,-27.33976 1.91015,-41.00976 0.19,-6.59 0.53989,-14.5599 -2.37011,-20.6499 -2.69,-5.86 -9.52071,-8.80026 -15.72071,-8.26026 -5.31,0.51 -10.48888,2.89903 -14.60888,6.24903 -4.88,3.91 -7.93133,10.31002 -11.36133,15.52002 -5.33,-0.05 -10.13,-0.44936 -15,2.16064 -8.17,4.35 -13.85864,13.09018 -16.09864,21.93018 -2.63,10.07 -3.83121,20.61992 -5.24121,30.91992 -3.71,28.41 -7.01925,56.85965 -11.73925,85.13965 -1.09,5.49 -0.92065,12.67023 -5.16065,16.74023 -4.78,4.94 -9.68986,9.74957 -14.35986,14.80957 4.3,-13.05 8.5306,-26.1291 13.1206,-39.0791 3.99,-12.22 8.19907,-23.58047 9.53907,-36.48047 0.81,-6.44 0.89095,-14.18053 -3.76905,-19.29053 -5.71,-6.24 -15.47091,-5.98935 -22.19091,-1.58935 -8.51001,5.87 -13.09874,14.18976 -17.94874,23.00976 -11.37,20.84 -22.82015,41.72065 -34.91015,62.16065 -8.38,13.7 -15.72059,27.86013 -20.10059,43.39013 -3.2,-5.28 -6.51943,-10.16062 -8.91943,-15.89062 -6.94,-16.24 -10.681,-34.34981 -13.021,-51.79981 -2.13,-16.08 -4.19976,-32.18984 -5.75976,-48.33984 -0.88,-7.3 -1.78037,-14.62107 -3.13037,-21.85107 -2.16,-10.92 -6.08877,-21.29916 -12.98877,-30.13916 -4.64,-6.24 -10.54041,-10.75032 -16.92041,-15.07032 -10.61,-6.96 -21.94987,-11.07986 -33.85987,-15.10986 -8.44,-3.12 -18.03056,-6.12068 -24.83056,-12.20068 -3.49,-3.09 -6.42979,-7.07899 -6.27979,-11.95899 0.24,-4.03 3.36027,-7.12984 5.78027,-10.08984 10.68,-12.37 17.33928,-28.43108 20.50928,-44.35108 3.27,-18.16 3.321,-38.23959 -2.729,-55.82959 -5.16,-14.81 -14.87072,-28.66005 -28.99072,-36.06005 -8.74875,-5.01 -18.69094,-7.70514 -28.75489,-8.16065 z m -1.85888,15.09522 c 5.70996,0.12763 11.44775,0.99492 16.604,3.07617 5.77,2.43 11.33961,5.7799 15.84961,10.1499 11.29,11.61 16.29084,26.90961 17.11084,42.84961 0.92,16.59 -1.73086,33.14029 -8.63086,48.30029 -6.14,12.96 -16.07898,24.29907 -29.95898,29.03907 -15.28,4.99 -32.26057,-0.12868 -43.58057,-11.13868 -10.47,-10.97 -15.68025,-24.58093 -18.76025,-39.21093 -3.05,-16.28 -2.79975,-32.91905 2.26025,-48.76905 2.89,-8.47 8.05029,-16.26134 14.55029,-22.38134 6.8,-5.98 15.42946,-10.23922 24.43946,-11.44922 3.27375,-0.3525 6.69023,-0.54241 10.11621,-0.46582 z m -25.23633,145.04589 c 3.58,0.92 6.94101,2.55946 10.54101,3.43946 12.23,2.97 25.14977,2.33086 36.50977,-3.36914 2.27,9.77 8.89012,17.36892 17.37012,22.39892 13.04,7.72 29.20984,11.83989 43.08984,17.87989 9.12,4.25 18.54971,10.28033 24.44971,18.59033 6.75,9.34 9.26982,19.87054 11.06982,31.06054 4.29,30.38 6.25016,62.71958 13.16016,92.80958 3.17,12.92 7.89002,25.70964 14.77002,37.13964 3.26,5.5 7.67986,9.54053 12.10986,14.04053 -0.21,6.5 -0.47943,13.01025 -0.66943,19.51025 -4.52,-1.95 -8.85032,-3.95992 -13.57032,-5.41992 -5.86,-1.85 -11.47091,-3.10986 -16.94091,-6.10986 -7.48,-3.9 -13.40909,-10.94066 -18.30909,-17.68066 -7.72,-10.94 -10.87986,-22.81979 -14.35986,-35.52979 -2.75,-11.48 -5.28988,-22.96068 -6.62988,-34.70068 -2.64,-16.32 -0.13053,-32.59979 0.95947,-49.02979 0.08,-2.61 0.28004,-5.2493 -1.20996,-7.5293 -2.53,-3.85 -8.78059,-3.9898 -11.85059,-0.7998 -2.12,3.05 -2.2492,7.71031 -2.6792,11.32031 -1.16,15.1 -3.02949,30.11922 -4.47949,45.19922 -1.28,13.96 -2.97056,27.88983 -4.58056,41.81983 -1.13,8.94 -1.44051,18.0305 -0.77051,27.0205 0.99,11.09 4.74994,21.44955 11.93994,30.03955 -10.11,2.56 -20.03893,5.71012 -29.89893,9.12012 -12.55,4.01 -25.03019,8.19988 -37.45019,12.62988 -3.4,1.31 -5.921,0.99022 -9.271,-0.27978 -15.49,-5.75 -31.33968,-10.19963 -47.17968,-14.86963 -9.04,-2.89 -18.25946,-5.0702 -27.43946,-7.4502 7.41,-8.49 10.4491,-19.16972 11.3291,-30.21972 0.7,-13.78 -1.60986,-28.25096 -3.10986,-41.98096 -2.7,-21.29 -4.9093,-42.63928 -6.7793,-64.00928 -0.57,-5.54 -0.2907,-11.82007 -2.2207,-17.08007 -2.02,-4.33 -7.54996,-4.9208 -10.95996,-1.8208 -4.13,3.07 -2.23975,8.57062 -2.23975,12.89062 0.36,11.86 2.05991,23.31951 1.14991,34.99951 -1.12,15.66 -4.59942,31.42063 -8.39942,46.64063 -2.52,9.09 -4.47988,17.71982 -8.87988,26.06982 -4.98,9.75 -11.7401,19.99018 -21.3501,25.68018 -5.17,3.2 -10.5299,3.89918 -16.1499,5.90918 -5.26,1.83 -9.87053,4.52105 -14.79053,7.08105 -0.37,-7.12 -0.84937,-14.31092 -0.60937,-21.44092 0,-2.4 1.87902,-4.10988 3.24902,-5.87988 6.73,-7.7 11.72041,-17.01928 15.42041,-26.50928 3.88,-11 7.25955,-22.46049 9.03955,-34.00049 2.3,-14.52 4.47986,-29.07017 6.10986,-43.68017 1.57,-12.68 2.92028,-25.42906 5.03028,-38.03906 1.4,-8.55 3.8408,-17.21078 8.5708,-24.55078 4.3,-6.53 10.25959,-12.0092 16.82959,-16.1792 14.6,-8.83 32.79039,-12.22014 47.90039,-20.14014 6.4,-3.59 12.80933,-7.8709 16.81933,-14.1709 2.26,-3.43 3.37987,-7.28934 5.35987,-10.81934 z m 327.03076,27.82911 c 0.76,3.73 0.56975,7.44115 -0.0103,11.18115 -2.5,20.77 -4.5002,41.61967 -6.7002,62.40967 -0.78,7.16 -1.61033,14.3497 -2.84033,21.4497 -0.83,4.8 -2.90918,9.07012 -5.90918,12.87012 -4.45,5.59 -8.92063,11.01039 -14.39063,15.65039 1.54,-8.09 2.97987,-16.1706 3.85987,-24.3706 2.19,-16 4.73019,-31.93924 6.70019,-47.96924 1.66,-10.79 2.67069,-21.69113 4.70069,-32.41113 1.13,-5.44 2.81935,-12.10895 6.83935,-16.16895 2.16,-2.24 4.86049,-2.21111 7.75049,-2.64111 z m -600.24023,0.31787 c 1.55484,0.0647 2.9874,0.5247 4.1499,1.7622 3.62,3.82 5.16998,9.92995 6.22998,14.93995 3.79,19.46 5.7499,39.52089 8.6499,59.17089 2.23,15.2 3.47029,30.54034 6.30029,45.59034 -6.66,-6.37 -15.00062,-13.88024 -18.14062,-22.74024 -2.27,-8.11 -2.75949,-16.8099 -3.72949,-25.1499 -2.05,-21.58 -4.45971,-43.11043 -6.44971,-64.69043 -0.2,-3.09 -0.13107,-6.05008 1.39893,-8.83008 0.54,-0.0525 1.07253,-0.0743 1.59082,-0.0527 z m 216.83935,156.90234 c 0.37,14.69 3.80975,27.18992 0.73975,41.41992 -1.52,8.07 -5.33948,15.18106 -10.70948,21.33106 -5.69,-1.36 -11.34988,-2.48112 -17.12988,-3.39112 4.47,-4.55 8.64008,-9.29912 11.83008,-14.84912 7.68,-12.84 10.91018,-27.27054 14.43018,-41.56054 0.28,-0.99 0.55935,-1.9702 0.83935,-2.9502 z m 159.94043,0.0308 c 1.99,6.07 2.80973,12.39901 4.71973,18.47901 3.08,10.05 6.52056,19.61111 12.83056,28.14111 3.46,4.92 7.72936,8.97908 12.08936,13.05908 -5.76,0.8 -11.43033,1.83018 -17.09033,3.18018 -4.67,-4.44 -8.64948,-9.28926 -10.70948,-15.48926 -5.41,-14.66 -2.79984,-31.95012 -1.83984,-47.37012 z M 393.01611,736.7959 c 2.78578,0.0427 5.5642,0.28939 8.3042,0.75439 10.29,1.71 20.50014,4.00977 30.64014,6.50977 20.16,5.31 40.22019,10.86939 59.95019,17.62939 -6.92,3.15 -14.20099,5.15041 -21.27099,7.92041 -21.36,7.48 -42.95033,14.29994 -64.34033,21.68994 -6.55,2.15 -13.39905,4.8701 -20.26905,5.6001 -9.19,0.96 -17.84009,-3.09054 -25.85009,-7.06054 -3.18,-1.75 -6.81987,-3.52995 -7.60987,-7.43995 -1.16,-5.96 -0.50039,-12.3399 -0.65039,-18.3999 0.15,-4.46 -0.25056,-9.55965 2.91944,-13.13965 3.74,-4.04 8.73119,-7.06054 13.72119,-9.31054 7.6725,-3.1725 16.09822,-4.88139 24.45556,-4.75342 z m 236.39502,0.30029 c 4.39375,-0.0113 8.78414,0.42453 13.11914,1.39453 8.18,1.91 16.92012,5.11942 23.37012,10.64942 3.72,3.01 3.44,7.49007 3.75,11.83007 0.07,6.27 0.5602,12.64038 -0.0498,18.88038 -0.39,3.65 -2.65049,6.19904 -5.50049,8.26904 -5.42,3.89 -11.48073,6.95998 -17.74072,9.22998 -20.47,7.11 -41.08897,10.29078 -62.43897,13.30078 -20.94,2.46 -41.8309,3.87016 -62.9209,4.16016 -14.72,0.74 -29.28926,-0.48992 -43.98926,-0.91992 -13.73,-0.81 -27.39052,-2.25114 -41.04052,-3.91114 -8.88,-1.2 -17.67903,-3.08922 -26.49903,-4.69922 7.54,-3.02 15.28951,-5.30029 22.99951,-7.80029 10.47,-3.59 20.99969,-6.92986 31.42969,-10.60986 19.26,-6.08 38.13024,-13.20998 57.24024,-19.72998 13.51,-5.11 27.3192,-9.26983 40.9292,-14.06983 18,-5.72 35.60068,-11.20092 54.20068,-14.69092 4.35,-0.815 8.74736,-1.27195 13.14111,-1.2832 z" />
</svg>
